<svg width="1512" height="383" viewBox="0 0 1512 383" fill="none" xmlns="http://www.w3.org/2000/svg">
<g opacity="0.03">
<mask id="path-1-outside-1_476_94" maskUnits="userSpaceOnUse" x="-446" y="0" width="2453" height="383" fill="black">
<rect fill="white" x="-446" width="2453" height="383"/>
<path d="M116.237 3.91826C116.929 3.91826 117.621 4.56676 117.621 5.37739V115.785C117.621 116.433 116.929 117.082 116.237 117.082H88.384C87.519 117.082 87 116.433 87 115.785V5.37739C87 4.56676 87.519 3.91826 88.384 3.91826H116.237ZM202.261 3.594C203.126 3.594 203.818 4.2425 203.818 5.05313V28.3992C203.818 29.0477 203.126 29.6962 202.261 29.6962H180.809C179.944 29.6962 179.252 30.3447 179.252 31.1553V115.623C179.252 116.271 178.733 116.92 177.868 116.92H150.016C149.151 116.92 148.632 116.271 148.632 115.623V31.1553C148.632 30.3447 147.94 29.6962 147.075 29.6962H125.45C124.585 29.6962 124.066 29.0477 124.066 28.3992V5.05313C124.066 4.2425 124.585 3.594 125.45 3.594H202.261ZM279.708 91.1417C280.573 91.1417 281.438 91.9523 281.265 92.7629L278.843 115.947C278.67 116.757 278.151 117.244 277.286 117.244H211.547C210.682 117.244 209.99 116.595 209.99 115.623V5.37739C209.99 4.72888 210.509 4.08038 211.374 4.08038H277.286C278.151 4.08038 278.67 4.56676 278.843 5.37739L281.265 28.3992C281.265 29.3719 280.573 30.0204 279.708 30.0204H242.168C241.303 30.0204 240.611 30.6689 240.611 31.4796V45.2602C240.611 46.0708 241.303 46.7193 242.168 46.7193H269.501C270.366 46.7193 271.058 47.3678 271.058 48.1785V71.2003C271.058 72.0109 270.366 72.6594 269.501 72.6594H242.168C241.303 72.6594 240.611 73.3079 240.611 74.1185V89.6826C240.611 90.4932 241.303 91.1417 242.168 91.1417H279.708ZM393.523 95.0327C394.215 95.5191 394.388 96.4918 393.869 96.9782C382.105 111.569 363.94 120 344.738 120C310.484 120 282.805 93.4114 282.805 60.5C282.805 27.7507 310.484 1 344.738 1C354.772 1 364.459 3.26975 373.282 7.64714C380.894 11.5381 387.814 16.8883 393.177 23.2112C393.696 23.8597 393.523 24.6703 392.831 25.1567L372.244 39.2616C371.725 39.748 370.86 39.5858 370.341 39.0994C363.768 31.9659 354.599 28.0749 344.738 28.0749C326.054 28.0749 310.83 42.6662 310.83 60.5C310.83 78.4959 326.054 93.0872 344.738 93.0872C354.945 93.0872 364.459 88.7098 371.033 81.252C371.379 80.6035 372.417 80.6035 372.936 80.9278L393.523 95.0327ZM497.786 3.91826C498.651 3.91826 499.343 4.56676 499.343 5.37739V115.785C499.343 116.433 498.651 117.082 497.786 117.082H470.107C469.242 117.082 468.55 116.433 468.55 115.785V74.1185C468.55 73.3079 467.858 72.8215 466.993 72.8215H432.566C431.701 72.8215 431.009 73.3079 431.009 74.1185V115.785C431.009 116.433 430.317 117.082 429.625 117.082H401.773C400.908 117.082 400.389 116.433 400.389 115.785V5.37739C400.389 4.56676 400.908 3.91826 401.773 3.91826H429.625C430.317 3.91826 431.009 4.56676 431.009 5.37739V45.4223C431.009 46.233 431.701 46.8815 432.566 46.8815H466.993C467.858 46.8815 468.55 46.233 468.55 45.4223V5.37739C468.55 4.56676 469.242 3.91826 470.107 3.91826H497.786ZM538.425 3.91826C539.117 3.91826 539.809 4.56676 539.809 5.37739V115.785C539.809 116.433 539.117 117.082 538.425 117.082H510.572C509.707 117.082 509.188 116.433 509.188 115.785V5.37739C509.188 4.56676 509.707 3.91826 510.572 3.91826H538.425ZM620.297 91.1417C621.162 91.1417 622.027 91.9523 621.854 92.7629L619.432 115.947C619.259 116.757 618.74 117.244 617.875 117.244H552.136C551.271 117.244 550.579 116.595 550.579 115.623V5.37739C550.579 4.72888 551.098 4.08038 551.963 4.08038H617.875C618.74 4.08038 619.259 4.56676 619.432 5.37739L621.854 28.3992C621.854 29.3719 621.162 30.0204 620.297 30.0204H582.757C581.892 30.0204 581.2 30.6689 581.2 31.4796V45.2602C581.2 46.0708 581.892 46.7193 582.757 46.7193H610.09C610.955 46.7193 611.647 47.3678 611.647 48.1785V71.2003C611.647 72.0109 610.955 72.6594 610.09 72.6594H582.757C581.892 72.6594 581.2 73.3079 581.2 74.1185V89.6826C581.2 90.4932 581.892 91.1417 582.757 91.1417H620.297ZM696.751 5.21525L699 28.3992C699 29.2098 698.308 30.0204 697.443 30.0204H662.498C661.633 30.0204 660.941 30.6689 660.941 31.4796V45.4223C660.941 46.233 661.633 46.8815 662.498 46.8815H688.274C689.139 46.8815 689.831 47.53 689.658 48.3406L689.485 71.5245C689.485 72.3352 688.793 72.8215 688.101 72.8215H662.498C661.633 72.8215 660.941 73.47 660.941 74.2807V115.785C660.941 116.433 660.249 117.082 659.557 117.082H631.704C630.839 117.082 630.32 116.433 630.32 115.785V5.37739C630.32 4.56676 630.839 3.91826 631.704 3.91826H695.194C696.059 3.91826 696.751 4.56676 696.751 5.21525Z"/>
<path d="M418.237 135.918C418.929 135.918 419.621 136.567 419.621 137.377V247.785C419.621 248.433 418.929 249.082 418.237 249.082H390.384C389.519 249.082 389 248.433 389 247.785V137.377C389 136.567 389.519 135.918 390.384 135.918H418.237ZM504.261 135.594C505.126 135.594 505.818 136.243 505.818 137.053V160.399C505.818 161.048 505.126 161.696 504.261 161.696H482.809C481.944 161.696 481.252 162.345 481.252 163.155V247.623C481.252 248.271 480.733 248.92 479.868 248.92H452.016C451.151 248.92 450.632 248.271 450.632 247.623V163.155C450.632 162.345 449.94 161.696 449.075 161.696H427.45C426.585 161.696 426.066 161.048 426.066 160.399V137.053C426.066 136.243 426.585 135.594 427.45 135.594H504.261ZM581.708 223.142C582.573 223.142 583.438 223.952 583.265 224.763L580.843 247.947C580.67 248.757 580.151 249.244 579.286 249.244H513.547C512.682 249.244 511.99 248.595 511.99 247.623V137.377C511.99 136.729 512.509 136.08 513.374 136.08H579.286C580.151 136.08 580.67 136.567 580.843 137.377L583.265 160.399C583.265 161.372 582.573 162.02 581.708 162.02H544.168C543.303 162.02 542.611 162.669 542.611 163.48V177.26C542.611 178.071 543.303 178.719 544.168 178.719H571.501C572.366 178.719 573.058 179.368 573.058 180.178V203.2C573.058 204.011 572.366 204.659 571.501 204.659H544.168C543.303 204.659 542.611 205.308 542.611 206.119V221.683C542.611 222.493 543.303 223.142 544.168 223.142H581.708ZM695.523 227.033C696.215 227.519 696.388 228.492 695.869 228.978C684.105 243.569 665.94 252 646.738 252C612.484 252 584.805 225.411 584.805 192.5C584.805 159.751 612.484 133 646.738 133C656.772 133 666.459 135.27 675.282 139.647C682.894 143.538 689.814 148.888 695.177 155.211C695.696 155.86 695.523 156.67 694.831 157.157L674.244 171.262C673.725 171.748 672.86 171.586 672.341 171.099C665.768 163.966 656.599 160.075 646.738 160.075C628.054 160.075 612.83 174.666 612.83 192.5C612.83 210.496 628.054 225.087 646.738 225.087C656.945 225.087 666.46 220.71 673.033 213.252C673.379 212.604 674.417 212.604 674.936 212.928L695.523 227.033ZM799.786 135.918C800.651 135.918 801.343 136.567 801.343 137.377V247.785C801.343 248.433 800.651 249.082 799.786 249.082H772.107C771.242 249.082 770.55 248.433 770.55 247.785V206.119C770.55 205.308 769.858 204.822 768.993 204.822H734.566C733.701 204.822 733.009 205.308 733.009 206.119V247.785C733.009 248.433 732.317 249.082 731.625 249.082H703.773C702.908 249.082 702.389 248.433 702.389 247.785V137.377C702.389 136.567 702.908 135.918 703.773 135.918H731.625C732.317 135.918 733.009 136.567 733.009 137.377V177.422C733.009 178.233 733.701 178.881 734.566 178.881H768.993C769.858 178.881 770.55 178.233 770.55 177.422V137.377C770.55 136.567 771.242 135.918 772.107 135.918H799.786ZM840.425 135.918C841.117 135.918 841.809 136.567 841.809 137.377V247.785C841.809 248.433 841.117 249.082 840.425 249.082H812.572C811.707 249.082 811.188 248.433 811.188 247.785V137.377C811.188 136.567 811.707 135.918 812.572 135.918H840.425ZM922.297 223.142C923.162 223.142 924.027 223.952 923.854 224.763L921.432 247.947C921.259 248.757 920.74 249.244 919.875 249.244H854.136C853.271 249.244 852.579 248.595 852.579 247.623V137.377C852.579 136.729 853.098 136.08 853.963 136.08H919.875C920.74 136.08 921.259 136.567 921.432 137.377L923.854 160.399C923.854 161.372 923.162 162.02 922.297 162.02H884.757C883.892 162.02 883.2 162.669 883.2 163.48V177.26C883.2 178.071 883.892 178.719 884.757 178.719H912.09C912.955 178.719 913.647 179.368 913.647 180.178V203.2C913.647 204.011 912.955 204.659 912.09 204.659H884.757C883.892 204.659 883.2 205.308 883.2 206.119V221.683C883.2 222.493 883.892 223.142 884.757 223.142H922.297ZM998.751 137.215L1001 160.399C1001 161.21 1000.31 162.02 999.443 162.02H964.498C963.633 162.02 962.941 162.669 962.941 163.48V177.422C962.941 178.233 963.633 178.881 964.498 178.881H990.274C991.139 178.881 991.831 179.53 991.658 180.341L991.485 203.525C991.485 204.335 990.793 204.822 990.101 204.822H964.498C963.633 204.822 962.941 205.47 962.941 206.281V247.785C962.941 248.433 962.249 249.082 961.557 249.082H933.704C932.839 249.082 932.32 248.433 932.32 247.785V137.377C932.32 136.567 932.839 135.918 933.704 135.918H997.194C998.059 135.918 998.751 136.567 998.751 137.215Z"/>
<path d="M879.237 265.918C879.929 265.918 880.621 266.567 880.621 267.377V377.785C880.621 378.433 879.929 379.082 879.237 379.082H851.384C850.519 379.082 850 378.433 850 377.785V267.377C850 266.567 850.519 265.918 851.384 265.918H879.237ZM965.261 265.594C966.126 265.594 966.818 266.243 966.818 267.053V290.399C966.818 291.048 966.126 291.696 965.261 291.696H943.809C942.944 291.696 942.252 292.345 942.252 293.155V377.623C942.252 378.271 941.733 378.92 940.868 378.92H913.016C912.151 378.92 911.632 378.271 911.632 377.623V293.155C911.632 292.345 910.94 291.696 910.075 291.696H888.45C887.585 291.696 887.066 291.048 887.066 290.399V267.053C887.066 266.243 887.585 265.594 888.45 265.594H965.261ZM1042.71 353.142C1043.57 353.142 1044.44 353.952 1044.27 354.763L1041.84 377.947C1041.67 378.757 1041.15 379.244 1040.29 379.244H974.547C973.682 379.244 972.99 378.595 972.99 377.623V267.377C972.99 266.729 973.509 266.08 974.374 266.08H1040.29C1041.15 266.08 1041.67 266.567 1041.84 267.377L1044.27 290.399C1044.27 291.372 1043.57 292.02 1042.71 292.02H1005.17C1004.3 292.02 1003.61 292.669 1003.61 293.48V307.26C1003.61 308.071 1004.3 308.719 1005.17 308.719H1032.5C1033.37 308.719 1034.06 309.368 1034.06 310.178V333.2C1034.06 334.011 1033.37 334.659 1032.5 334.659H1005.17C1004.3 334.659 1003.61 335.308 1003.61 336.119V351.683C1003.61 352.493 1004.3 353.142 1005.17 353.142H1042.71ZM1156.52 357.033C1157.22 357.519 1157.39 358.492 1156.87 358.978C1145.11 373.569 1126.94 382 1107.74 382C1073.48 382 1045.8 355.411 1045.8 322.5C1045.8 289.751 1073.48 263 1107.74 263C1117.77 263 1127.46 265.27 1136.28 269.647C1143.89 273.538 1150.81 278.888 1156.18 285.211C1156.7 285.86 1156.52 286.67 1155.83 287.157L1135.24 301.262C1134.73 301.748 1133.86 301.586 1133.34 301.099C1126.77 293.966 1117.6 290.075 1107.74 290.075C1089.05 290.075 1073.83 304.666 1073.83 322.5C1073.83 340.496 1089.05 355.087 1107.74 355.087C1117.94 355.087 1127.46 350.71 1134.03 343.252C1134.38 342.604 1135.42 342.604 1135.94 342.928L1156.52 357.033ZM1260.79 265.918C1261.65 265.918 1262.34 266.567 1262.34 267.377V377.785C1262.34 378.433 1261.65 379.082 1260.79 379.082H1233.11C1232.24 379.082 1231.55 378.433 1231.55 377.785V336.119C1231.55 335.308 1230.86 334.822 1229.99 334.822H1195.57C1194.7 334.822 1194.01 335.308 1194.01 336.119V377.785C1194.01 378.433 1193.32 379.082 1192.63 379.082H1164.77C1163.91 379.082 1163.39 378.433 1163.39 377.785V267.377C1163.39 266.567 1163.91 265.918 1164.77 265.918H1192.63C1193.32 265.918 1194.01 266.567 1194.01 267.377V307.422C1194.01 308.233 1194.7 308.881 1195.57 308.881H1229.99C1230.86 308.881 1231.55 308.233 1231.55 307.422V267.377C1231.55 266.567 1232.24 265.918 1233.11 265.918H1260.79ZM1301.42 265.918C1302.12 265.918 1302.81 266.567 1302.81 267.377V377.785C1302.81 378.433 1302.12 379.082 1301.42 379.082H1273.57C1272.71 379.082 1272.19 378.433 1272.19 377.785V267.377C1272.19 266.567 1272.71 265.918 1273.57 265.918H1301.42ZM1383.3 353.142C1384.16 353.142 1385.03 353.952 1384.85 354.763L1382.43 377.947C1382.26 378.757 1381.74 379.244 1380.88 379.244H1315.14C1314.27 379.244 1313.58 378.595 1313.58 377.623V267.377C1313.58 266.729 1314.1 266.08 1314.96 266.08H1380.88C1381.74 266.08 1382.26 266.567 1382.43 267.377L1384.85 290.399C1384.85 291.372 1384.16 292.02 1383.3 292.02H1345.76C1344.89 292.02 1344.2 292.669 1344.2 293.48V307.26C1344.2 308.071 1344.89 308.719 1345.76 308.719H1373.09C1373.96 308.719 1374.65 309.368 1374.65 310.178V333.2C1374.65 334.011 1373.96 334.659 1373.09 334.659H1345.76C1344.89 334.659 1344.2 335.308 1344.2 336.119V351.683C1344.2 352.493 1344.89 353.142 1345.76 353.142H1383.3ZM1459.75 267.215L1462 290.399C1462 291.21 1461.31 292.02 1460.44 292.02H1425.5C1424.63 292.02 1423.94 292.669 1423.94 293.48V307.422C1423.94 308.233 1424.63 308.881 1425.5 308.881H1451.27C1452.14 308.881 1452.83 309.53 1452.66 310.341L1452.49 333.525C1452.49 334.335 1451.79 334.822 1451.1 334.822H1425.5C1424.63 334.822 1423.94 335.47 1423.94 336.281V377.785C1423.94 378.433 1423.25 379.082 1422.56 379.082H1394.7C1393.84 379.082 1393.32 378.433 1393.32 377.785V267.377C1393.32 266.567 1393.84 265.918 1394.7 265.918H1458.19C1459.06 265.918 1459.75 266.567 1459.75 267.215Z"/>
<path d="M1063.24 135.918C1063.93 135.918 1064.62 136.567 1064.62 137.377V247.785C1064.62 248.433 1063.93 249.082 1063.24 249.082H1035.38C1034.52 249.082 1034 248.433 1034 247.785V137.377C1034 136.567 1034.52 135.918 1035.38 135.918H1063.24ZM1149.26 135.594C1150.13 135.594 1150.82 136.243 1150.82 137.053V160.399C1150.82 161.048 1150.13 161.696 1149.26 161.696H1127.81C1126.94 161.696 1126.25 162.345 1126.25 163.155V247.623C1126.25 248.271 1125.73 248.92 1124.87 248.92H1097.02C1096.15 248.92 1095.63 248.271 1095.63 247.623V163.155C1095.63 162.345 1094.94 161.696 1094.07 161.696H1072.45C1071.59 161.696 1071.07 161.048 1071.07 160.399V137.053C1071.07 136.243 1071.59 135.594 1072.45 135.594H1149.26ZM1226.71 223.142C1227.57 223.142 1228.44 223.952 1228.27 224.763L1225.84 247.947C1225.67 248.757 1225.15 249.244 1224.29 249.244H1158.55C1157.68 249.244 1156.99 248.595 1156.99 247.623V137.377C1156.99 136.729 1157.51 136.08 1158.37 136.08H1224.29C1225.15 136.08 1225.67 136.567 1225.84 137.377L1228.27 160.399C1228.27 161.372 1227.57 162.02 1226.71 162.02H1189.17C1188.3 162.02 1187.61 162.669 1187.61 163.48V177.26C1187.61 178.071 1188.3 178.719 1189.17 178.719H1216.5C1217.37 178.719 1218.06 179.368 1218.06 180.178V203.2C1218.06 204.011 1217.37 204.659 1216.5 204.659H1189.17C1188.3 204.659 1187.61 205.308 1187.61 206.119V221.683C1187.61 222.493 1188.3 223.142 1189.17 223.142H1226.71ZM1340.52 227.033C1341.22 227.519 1341.39 228.492 1340.87 228.978C1329.11 243.569 1310.94 252 1291.74 252C1257.48 252 1229.8 225.411 1229.8 192.5C1229.8 159.751 1257.48 133 1291.74 133C1301.77 133 1311.46 135.27 1320.28 139.647C1327.89 143.538 1334.81 148.888 1340.18 155.211C1340.7 155.86 1340.52 156.67 1339.83 157.157L1319.24 171.262C1318.73 171.748 1317.86 171.586 1317.34 171.099C1310.77 163.966 1301.6 160.075 1291.74 160.075C1273.05 160.075 1257.83 174.666 1257.83 192.5C1257.83 210.496 1273.05 225.087 1291.74 225.087C1301.94 225.087 1311.46 220.71 1318.03 213.252C1318.38 212.604 1319.42 212.604 1319.94 212.928L1340.52 227.033ZM1444.79 135.918C1445.65 135.918 1446.34 136.567 1446.34 137.377V247.785C1446.34 248.433 1445.65 249.082 1444.79 249.082H1417.11C1416.24 249.082 1415.55 248.433 1415.55 247.785V206.119C1415.55 205.308 1414.86 204.822 1413.99 204.822H1379.57C1378.7 204.822 1378.01 205.308 1378.01 206.119V247.785C1378.01 248.433 1377.32 249.082 1376.63 249.082H1348.77C1347.91 249.082 1347.39 248.433 1347.39 247.785V137.377C1347.39 136.567 1347.91 135.918 1348.77 135.918H1376.63C1377.32 135.918 1378.01 136.567 1378.01 137.377V177.422C1378.01 178.233 1378.7 178.881 1379.57 178.881H1413.99C1414.86 178.881 1415.55 178.233 1415.55 177.422V137.377C1415.55 136.567 1416.24 135.918 1417.11 135.918H1444.79ZM1485.42 135.918C1486.12 135.918 1486.81 136.567 1486.81 137.377V247.785C1486.81 248.433 1486.12 249.082 1485.42 249.082H1457.57C1456.71 249.082 1456.19 248.433 1456.19 247.785V137.377C1456.19 136.567 1456.71 135.918 1457.57 135.918H1485.42ZM1567.3 223.142C1568.16 223.142 1569.03 223.952 1568.85 224.763L1566.43 247.947C1566.26 248.757 1565.74 249.244 1564.88 249.244H1499.14C1498.27 249.244 1497.58 248.595 1497.58 247.623V137.377C1497.58 136.729 1498.1 136.08 1498.96 136.08H1564.88C1565.74 136.08 1566.26 136.567 1566.43 137.377L1568.85 160.399C1568.85 161.372 1568.16 162.02 1567.3 162.02H1529.76C1528.89 162.02 1528.2 162.669 1528.2 163.48V177.26C1528.2 178.071 1528.89 178.719 1529.76 178.719H1557.09C1557.96 178.719 1558.65 179.368 1558.65 180.178V203.2C1558.65 204.011 1557.96 204.659 1557.09 204.659H1529.76C1528.89 204.659 1528.2 205.308 1528.2 206.119V221.683C1528.2 222.493 1528.89 223.142 1529.76 223.142H1567.3ZM1643.75 137.215L1646 160.399C1646 161.21 1645.31 162.02 1644.44 162.02H1609.5C1608.63 162.02 1607.94 162.669 1607.94 163.48V177.422C1607.94 178.233 1608.63 178.881 1609.5 178.881H1635.27C1636.14 178.881 1636.83 179.53 1636.66 180.341L1636.49 203.525C1636.49 204.335 1635.79 204.822 1635.1 204.822H1609.5C1608.63 204.822 1607.94 205.47 1607.94 206.281V247.785C1607.94 248.433 1607.25 249.082 1606.56 249.082H1578.7C1577.84 249.082 1577.32 248.433 1577.32 247.785V137.377C1577.32 136.567 1577.84 135.918 1578.7 135.918H1642.19C1643.06 135.918 1643.75 136.567 1643.75 137.215Z"/>
<path d="M773.237 3.91826C773.929 3.91826 774.621 4.56676 774.621 5.37739V115.785C774.621 116.433 773.929 117.082 773.237 117.082H745.384C744.519 117.082 744 116.433 744 115.785V5.37739C744 4.56676 744.519 3.91826 745.384 3.91826H773.237ZM859.261 3.594C860.126 3.594 860.818 4.2425 860.818 5.05313V28.3992C860.818 29.0477 860.126 29.6962 859.261 29.6962H837.809C836.944 29.6962 836.252 30.3447 836.252 31.1553V115.623C836.252 116.271 835.733 116.92 834.868 116.92H807.016C806.151 116.92 805.632 116.271 805.632 115.623V31.1553C805.632 30.3447 804.94 29.6962 804.075 29.6962H782.45C781.585 29.6962 781.066 29.0477 781.066 28.3992V5.05313C781.066 4.2425 781.585 3.594 782.45 3.594H859.261ZM936.708 91.1417C937.573 91.1417 938.438 91.9523 938.265 92.7629L935.843 115.947C935.67 116.757 935.151 117.244 934.286 117.244H868.547C867.682 117.244 866.99 116.595 866.99 115.623V5.37739C866.99 4.72888 867.509 4.08038 868.374 4.08038H934.286C935.151 4.08038 935.67 4.56676 935.843 5.37739L938.265 28.3992C938.265 29.3719 937.573 30.0204 936.708 30.0204H899.168C898.303 30.0204 897.611 30.6689 897.611 31.4796V45.2602C897.611 46.0708 898.303 46.7193 899.168 46.7193H926.501C927.366 46.7193 928.058 47.3678 928.058 48.1785V71.2003C928.058 72.0109 927.366 72.6594 926.501 72.6594H899.168C898.303 72.6594 897.611 73.3079 897.611 74.1185V89.6826C897.611 90.4932 898.303 91.1417 899.168 91.1417H936.708ZM1050.52 95.0327C1051.22 95.5191 1051.39 96.4918 1050.87 96.9782C1039.11 111.569 1020.94 120 1001.74 120C967.484 120 939.805 93.4114 939.805 60.5C939.805 27.7507 967.484 1 1001.74 1C1011.77 1 1021.46 3.26975 1030.28 7.64714C1037.89 11.5381 1044.81 16.8883 1050.18 23.2112C1050.7 23.8597 1050.52 24.6703 1049.83 25.1567L1029.24 39.2616C1028.73 39.748 1027.86 39.5858 1027.34 39.0994C1020.77 31.9659 1011.6 28.0749 1001.74 28.0749C983.054 28.0749 967.83 42.6662 967.83 60.5C967.83 78.4959 983.054 93.0872 1001.74 93.0872C1011.94 93.0872 1021.46 88.7098 1028.03 81.252C1028.38 80.6035 1029.42 80.6035 1029.94 80.9278L1050.52 95.0327ZM1154.79 3.91826C1155.65 3.91826 1156.34 4.56676 1156.34 5.37739V115.785C1156.34 116.433 1155.65 117.082 1154.79 117.082H1127.11C1126.24 117.082 1125.55 116.433 1125.55 115.785V74.1185C1125.55 73.3079 1124.86 72.8215 1123.99 72.8215H1089.57C1088.7 72.8215 1088.01 73.3079 1088.01 74.1185V115.785C1088.01 116.433 1087.32 117.082 1086.63 117.082H1058.77C1057.91 117.082 1057.39 116.433 1057.39 115.785V5.37739C1057.39 4.56676 1057.91 3.91826 1058.77 3.91826H1086.63C1087.32 3.91826 1088.01 4.56676 1088.01 5.37739V45.4223C1088.01 46.233 1088.7 46.8815 1089.57 46.8815H1123.99C1124.86 46.8815 1125.55 46.233 1125.55 45.4223V5.37739C1125.55 4.56676 1126.24 3.91826 1127.11 3.91826H1154.79ZM1195.42 3.91826C1196.12 3.91826 1196.81 4.56676 1196.81 5.37739V115.785C1196.81 116.433 1196.12 117.082 1195.42 117.082H1167.57C1166.71 117.082 1166.19 116.433 1166.19 115.785V5.37739C1166.19 4.56676 1166.71 3.91826 1167.57 3.91826H1195.42ZM1277.3 91.1417C1278.16 91.1417 1279.03 91.9523 1278.85 92.7629L1276.43 115.947C1276.26 116.757 1275.74 117.244 1274.88 117.244H1209.14C1208.27 117.244 1207.58 116.595 1207.58 115.623V5.37739C1207.58 4.72888 1208.1 4.08038 1208.96 4.08038H1274.88C1275.74 4.08038 1276.26 4.56676 1276.43 5.37739L1278.85 28.3992C1278.85 29.3719 1278.16 30.0204 1277.3 30.0204H1239.76C1238.89 30.0204 1238.2 30.6689 1238.2 31.4796V45.2602C1238.2 46.0708 1238.89 46.7193 1239.76 46.7193H1267.09C1267.96 46.7193 1268.65 47.3678 1268.65 48.1785V71.2003C1268.65 72.0109 1267.96 72.6594 1267.09 72.6594H1239.76C1238.89 72.6594 1238.2 73.3079 1238.2 74.1185V89.6826C1238.2 90.4932 1238.89 91.1417 1239.76 91.1417H1277.3ZM1353.75 5.21525L1356 28.3992C1356 29.2098 1355.31 30.0204 1354.44 30.0204H1319.5C1318.63 30.0204 1317.94 30.6689 1317.94 31.4796V45.4223C1317.94 46.233 1318.63 46.8815 1319.5 46.8815H1345.27C1346.14 46.8815 1346.83 47.53 1346.66 48.3406L1346.49 71.5245C1346.49 72.3352 1345.79 72.8215 1345.1 72.8215H1319.5C1318.63 72.8215 1317.94 73.47 1317.94 74.2807V115.785C1317.94 116.433 1317.25 117.082 1316.56 117.082H1288.7C1287.84 117.082 1287.32 116.433 1287.32 115.785V5.37739C1287.32 4.56676 1287.84 3.91826 1288.7 3.91826H1352.19C1353.06 3.91826 1353.75 4.56676 1353.75 5.21525Z"/>
<path d="M-222.763 135.918C-222.071 135.918 -221.379 136.567 -221.379 137.377V247.785C-221.379 248.433 -222.071 249.082 -222.763 249.082H-250.616C-251.481 249.082 -252 248.433 -252 247.785V137.377C-252 136.567 -251.481 135.918 -250.616 135.918H-222.763ZM-136.739 135.594C-135.874 135.594 -135.182 136.243 -135.182 137.053V160.399C-135.182 161.048 -135.874 161.696 -136.739 161.696H-158.191C-159.056 161.696 -159.748 162.345 -159.748 163.155V247.623C-159.748 248.271 -160.267 248.92 -161.132 248.92H-188.984C-189.849 248.92 -190.368 248.271 -190.368 247.623V163.155C-190.368 162.345 -191.06 161.696 -191.925 161.696H-213.55C-214.415 161.696 -214.934 161.048 -214.934 160.399V137.053C-214.934 136.243 -214.415 135.594 -213.55 135.594H-136.739ZM-59.2917 223.142C-58.4267 223.142 -57.5617 223.952 -57.7347 224.763L-60.1567 247.947C-60.3297 248.757 -60.8486 249.244 -61.7136 249.244H-127.453C-128.318 249.244 -129.01 248.595 -129.01 247.623V137.377C-129.01 136.729 -128.491 136.08 -127.626 136.08H-61.7136C-60.8486 136.08 -60.3297 136.567 -60.1567 137.377L-57.7347 160.399C-57.7347 161.372 -58.4267 162.02 -59.2917 162.02H-96.8321C-97.6971 162.02 -98.3891 162.669 -98.3891 163.48V177.26C-98.3891 178.071 -97.6971 178.719 -96.8321 178.719H-69.4985C-68.6336 178.719 -67.9415 179.368 -67.9415 180.178V203.2C-67.9415 204.011 -68.6336 204.659 -69.4985 204.659H-96.8321C-97.6971 204.659 -98.3891 205.308 -98.3891 206.119V221.683C-98.3891 222.493 -97.6971 223.142 -96.8321 223.142H-59.2917ZM54.523 227.033C55.2151 227.519 55.388 228.492 54.869 228.978C43.1052 243.569 24.9405 252 5.73779 252C-28.5157 252 -56.1953 225.411 -56.1953 192.5C-56.1953 159.751 -28.5157 133 5.73779 133C15.7716 133 25.4595 135.27 34.2823 139.647C41.8942 143.538 48.8141 148.888 54.1771 155.211C54.696 155.86 54.523 156.67 53.8311 157.157L33.2444 171.262C32.7254 171.748 31.8604 171.586 31.3414 171.099C24.7675 163.966 15.5986 160.075 5.73779 160.075C-12.9459 160.075 -28.1697 174.666 -28.1697 192.5C-28.1697 210.496 -12.9459 225.087 5.73779 225.087C15.9446 225.087 25.4595 220.71 32.0334 213.252C32.3794 212.604 33.4174 212.604 33.9363 212.928L54.523 227.033ZM158.786 135.918C159.651 135.918 160.343 136.567 160.343 137.377V247.785C160.343 248.433 159.651 249.082 158.786 249.082H131.107C130.242 249.082 129.55 248.433 129.55 247.785V206.119C129.55 205.308 128.858 204.822 127.993 204.822H93.5664C92.7014 204.822 92.0094 205.308 92.0094 206.119V247.785C92.0094 248.433 91.3175 249.082 90.6255 249.082H62.7729C61.9079 249.082 61.3889 248.433 61.3889 247.785V137.377C61.3889 136.567 61.9079 135.918 62.7729 135.918H90.6255C91.3175 135.918 92.0094 136.567 92.0094 137.377V177.422C92.0094 178.233 92.7014 178.881 93.5664 178.881H127.993C128.858 178.881 129.55 178.233 129.55 177.422V137.377C129.55 136.567 130.242 135.918 131.107 135.918H158.786ZM199.425 135.918C200.117 135.918 200.809 136.567 200.809 137.377V247.785C200.809 248.433 200.117 249.082 199.425 249.082H171.572C170.707 249.082 170.188 248.433 170.188 247.785V137.377C170.188 136.567 170.707 135.918 171.572 135.918H199.425ZM281.297 223.142C282.162 223.142 283.027 223.952 282.854 224.763L280.432 247.947C280.259 248.757 279.74 249.244 278.875 249.244H213.136C212.271 249.244 211.579 248.595 211.579 247.623V137.377C211.579 136.729 212.098 136.08 212.963 136.08H278.875C279.74 136.08 280.259 136.567 280.432 137.377L282.854 160.399C282.854 161.372 282.162 162.02 281.297 162.02H243.757C242.892 162.02 242.2 162.669 242.2 163.48V177.26C242.2 178.071 242.892 178.719 243.757 178.719H271.09C271.955 178.719 272.647 179.368 272.647 180.178V203.2C272.647 204.011 271.955 204.659 271.09 204.659H243.757C242.892 204.659 242.2 205.308 242.2 206.119V221.683C242.2 222.493 242.892 223.142 243.757 223.142H281.297ZM357.751 137.215L360 160.399C360 161.21 359.308 162.02 358.443 162.02H323.498C322.633 162.02 321.941 162.669 321.941 163.48V177.422C321.941 178.233 322.633 178.881 323.498 178.881H349.274C350.139 178.881 350.831 179.53 350.658 180.341L350.485 203.525C350.485 204.335 349.793 204.822 349.101 204.822H323.498C322.633 204.822 321.941 205.47 321.941 206.281V247.785C321.941 248.433 321.249 249.082 320.557 249.082H292.704C291.839 249.082 291.32 248.433 291.32 247.785V137.377C291.32 136.567 291.839 135.918 292.704 135.918H356.194C357.059 135.918 357.751 136.567 357.751 137.215Z"/>
<path d="M234.237 265.918C234.929 265.918 235.621 266.567 235.621 267.377V377.785C235.621 378.433 234.929 379.082 234.237 379.082H206.384C205.519 379.082 205 378.433 205 377.785V267.377C205 266.567 205.519 265.918 206.384 265.918H234.237ZM320.261 265.594C321.126 265.594 321.818 266.243 321.818 267.053V290.399C321.818 291.048 321.126 291.696 320.261 291.696H298.809C297.944 291.696 297.252 292.345 297.252 293.155V377.623C297.252 378.271 296.733 378.92 295.868 378.92H268.016C267.151 378.92 266.632 378.271 266.632 377.623V293.155C266.632 292.345 265.94 291.696 265.075 291.696H243.45C242.585 291.696 242.066 291.048 242.066 290.399V267.053C242.066 266.243 242.585 265.594 243.45 265.594H320.261ZM397.708 353.142C398.573 353.142 399.438 353.952 399.265 354.763L396.843 377.947C396.67 378.757 396.151 379.244 395.286 379.244H329.547C328.682 379.244 327.99 378.595 327.99 377.623V267.377C327.99 266.729 328.509 266.08 329.374 266.08H395.286C396.151 266.08 396.67 266.567 396.843 267.377L399.265 290.399C399.265 291.372 398.573 292.02 397.708 292.02H360.168C359.303 292.02 358.611 292.669 358.611 293.48V307.26C358.611 308.071 359.303 308.719 360.168 308.719H387.501C388.366 308.719 389.058 309.368 389.058 310.178V333.2C389.058 334.011 388.366 334.659 387.501 334.659H360.168C359.303 334.659 358.611 335.308 358.611 336.119V351.683C358.611 352.493 359.303 353.142 360.168 353.142H397.708ZM511.523 357.033C512.215 357.519 512.388 358.492 511.869 358.978C500.105 373.569 481.94 382 462.738 382C428.484 382 400.805 355.411 400.805 322.5C400.805 289.751 428.484 263 462.738 263C472.772 263 482.459 265.27 491.282 269.647C498.894 273.538 505.814 278.888 511.177 285.211C511.696 285.86 511.523 286.67 510.831 287.157L490.244 301.262C489.725 301.748 488.86 301.586 488.341 301.099C481.768 293.966 472.599 290.075 462.738 290.075C444.054 290.075 428.83 304.666 428.83 322.5C428.83 340.496 444.054 355.087 462.738 355.087C472.945 355.087 482.459 350.71 489.033 343.252C489.379 342.604 490.417 342.604 490.936 342.928L511.523 357.033ZM615.786 265.918C616.651 265.918 617.343 266.567 617.343 267.377V377.785C617.343 378.433 616.651 379.082 615.786 379.082H588.107C587.242 379.082 586.55 378.433 586.55 377.785V336.119C586.55 335.308 585.858 334.822 584.993 334.822H550.566C549.701 334.822 549.009 335.308 549.009 336.119V377.785C549.009 378.433 548.317 379.082 547.625 379.082H519.773C518.908 379.082 518.389 378.433 518.389 377.785V267.377C518.389 266.567 518.908 265.918 519.773 265.918H547.625C548.317 265.918 549.009 266.567 549.009 267.377V307.422C549.009 308.233 549.701 308.881 550.566 308.881H584.993C585.858 308.881 586.55 308.233 586.55 307.422V267.377C586.55 266.567 587.242 265.918 588.107 265.918H615.786ZM656.425 265.918C657.117 265.918 657.809 266.567 657.809 267.377V377.785C657.809 378.433 657.117 379.082 656.425 379.082H628.572C627.707 379.082 627.188 378.433 627.188 377.785V267.377C627.188 266.567 627.707 265.918 628.572 265.918H656.425ZM738.297 353.142C739.162 353.142 740.027 353.952 739.854 354.763L737.432 377.947C737.259 378.757 736.74 379.244 735.875 379.244H670.136C669.271 379.244 668.579 378.595 668.579 377.623V267.377C668.579 266.729 669.098 266.08 669.963 266.08H735.875C736.74 266.08 737.259 266.567 737.432 267.377L739.854 290.399C739.854 291.372 739.162 292.02 738.297 292.02H700.757C699.892 292.02 699.2 292.669 699.2 293.48V307.26C699.2 308.071 699.892 308.719 700.757 308.719H728.09C728.955 308.719 729.647 309.368 729.647 310.178V333.2C729.647 334.011 728.955 334.659 728.09 334.659H700.757C699.892 334.659 699.2 335.308 699.2 336.119V351.683C699.2 352.493 699.892 353.142 700.757 353.142H738.297ZM814.751 267.215L817 290.399C817 291.21 816.308 292.02 815.443 292.02H780.498C779.633 292.02 778.941 292.669 778.941 293.48V307.422C778.941 308.233 779.633 308.881 780.498 308.881H806.274C807.139 308.881 807.831 309.53 807.658 310.341L807.485 333.525C807.485 334.335 806.793 334.822 806.101 334.822H780.498C779.633 334.822 778.941 335.47 778.941 336.281V377.785C778.941 378.433 778.249 379.082 777.557 379.082H749.704C748.839 379.082 748.32 378.433 748.32 377.785V267.377C748.32 266.567 748.839 265.918 749.704 265.918H813.194C814.059 265.918 814.751 266.567 814.751 267.215Z"/>
<path d="M-415.763 263.918C-415.071 263.918 -414.379 264.567 -414.379 265.377V375.785C-414.379 376.433 -415.071 377.082 -415.763 377.082H-443.616C-444.481 377.082 -445 376.433 -445 375.785V265.377C-445 264.567 -444.481 263.918 -443.616 263.918H-415.763ZM-329.739 263.594C-328.874 263.594 -328.182 264.243 -328.182 265.053V288.399C-328.182 289.048 -328.874 289.696 -329.739 289.696H-351.191C-352.056 289.696 -352.748 290.345 -352.748 291.155V375.623C-352.748 376.271 -353.267 376.92 -354.132 376.92H-381.984C-382.849 376.92 -383.368 376.271 -383.368 375.623V291.155C-383.368 290.345 -384.06 289.696 -384.925 289.696H-406.55C-407.415 289.696 -407.934 289.048 -407.934 288.399V265.053C-407.934 264.243 -407.415 263.594 -406.55 263.594H-329.739ZM-252.292 351.142C-251.427 351.142 -250.562 351.952 -250.735 352.763L-253.157 375.947C-253.33 376.757 -253.849 377.244 -254.714 377.244H-320.453C-321.318 377.244 -322.01 376.595 -322.01 375.623V265.377C-322.01 264.729 -321.491 264.08 -320.626 264.08H-254.714C-253.849 264.08 -253.33 264.567 -253.157 265.377L-250.735 288.399C-250.735 289.372 -251.427 290.02 -252.292 290.02H-289.832C-290.697 290.02 -291.389 290.669 -291.389 291.48V305.26C-291.389 306.071 -290.697 306.719 -289.832 306.719H-262.499C-261.634 306.719 -260.942 307.368 -260.942 308.178V331.2C-260.942 332.011 -261.634 332.659 -262.499 332.659H-289.832C-290.697 332.659 -291.389 333.308 -291.389 334.119V349.683C-291.389 350.493 -290.697 351.142 -289.832 351.142H-252.292ZM-138.477 355.033C-137.785 355.519 -137.612 356.492 -138.131 356.978C-149.895 371.569 -168.06 380 -187.262 380C-221.516 380 -249.195 353.411 -249.195 320.5C-249.195 287.751 -221.516 261 -187.262 261C-177.228 261 -167.541 263.27 -158.718 267.647C-151.106 271.538 -144.186 276.888 -138.823 283.211C-138.304 283.86 -138.477 284.67 -139.169 285.157L-159.756 299.262C-160.275 299.748 -161.14 299.586 -161.659 299.099C-168.233 291.966 -177.401 288.075 -187.262 288.075C-205.946 288.075 -221.17 302.666 -221.17 320.5C-221.17 338.496 -205.946 353.087 -187.262 353.087C-177.055 353.087 -167.541 348.71 -160.967 341.252C-160.621 340.604 -159.583 340.604 -159.064 340.928L-138.477 355.033ZM-34.2136 263.918C-33.3486 263.918 -32.6566 264.567 -32.6566 265.377V375.785C-32.6566 376.433 -33.3486 377.082 -34.2136 377.082H-61.8932C-62.7581 377.082 -63.4501 376.433 -63.4501 375.785V334.119C-63.4501 333.308 -64.1421 332.822 -65.0071 332.822H-99.4336C-100.299 332.822 -100.991 333.308 -100.991 334.119V375.785C-100.991 376.433 -101.683 377.082 -102.375 377.082H-130.227C-131.092 377.082 -131.611 376.433 -131.611 375.785V265.377C-131.611 264.567 -131.092 263.918 -130.227 263.918H-102.375C-101.683 263.918 -100.991 264.567 -100.991 265.377V305.422C-100.991 306.233 -100.299 306.881 -99.4336 306.881H-65.0071C-64.1421 306.881 -63.4501 306.233 -63.4501 305.422V265.377C-63.4501 264.567 -62.7581 263.918 -61.8932 263.918H-34.2136ZM6.42459 263.918C7.11658 263.918 7.80859 264.567 7.80859 265.377V375.785C7.80859 376.433 7.11658 377.082 6.42459 377.082H-21.428C-22.293 377.082 -22.812 376.433 -22.812 375.785V265.377C-22.812 264.567 -22.293 263.918 -21.428 263.918H6.42459ZM88.297 351.142C89.162 351.142 90.027 351.952 89.8539 352.763L87.432 375.947C87.259 376.757 86.74 377.244 85.875 377.244H20.136C19.271 377.244 18.579 376.595 18.579 375.623V265.377C18.579 264.729 19.098 264.08 19.963 264.08H85.875C86.74 264.08 87.259 264.567 87.432 265.377L89.8539 288.399C89.8539 289.372 89.162 290.02 88.297 290.02H50.7566C49.8916 290.02 49.1996 290.669 49.1996 291.48V305.26C49.1996 306.071 49.8916 306.719 50.7566 306.719H78.0901C78.9551 306.719 79.6471 307.368 79.6471 308.178V331.2C79.6471 332.011 78.9551 332.659 78.0901 332.659H50.7566C49.8916 332.659 49.1996 333.308 49.1996 334.119V349.683C49.1996 350.493 49.8916 351.142 50.7566 351.142H88.297ZM164.751 265.215L167 288.399C167 289.21 166.308 290.02 165.443 290.02H130.498C129.633 290.02 128.941 290.669 128.941 291.48V305.422C128.941 306.233 129.633 306.881 130.498 306.881H156.274C157.139 306.881 157.831 307.53 157.658 308.341L157.485 331.525C157.485 332.335 156.793 332.822 156.101 332.822H130.498C129.633 332.822 128.941 333.47 128.941 334.281V375.785C128.941 376.433 128.249 377.082 127.557 377.082H99.704C98.839 377.082 98.3201 376.433 98.3201 375.785V265.377C98.3201 264.567 98.839 263.918 99.704 263.918H163.194C164.059 263.918 164.751 264.567 164.751 265.215Z"/>
<path d="M1423.24 3.91826C1423.93 3.91826 1424.62 4.56676 1424.62 5.37739V115.785C1424.62 116.433 1423.93 117.082 1423.24 117.082H1395.38C1394.52 117.082 1394 116.433 1394 115.785V5.37739C1394 4.56676 1394.52 3.91826 1395.38 3.91826H1423.24ZM1509.26 3.594C1510.13 3.594 1510.82 4.2425 1510.82 5.05313V28.3992C1510.82 29.0477 1510.13 29.6962 1509.26 29.6962H1487.81C1486.94 29.6962 1486.25 30.3447 1486.25 31.1553V115.623C1486.25 116.271 1485.73 116.92 1484.87 116.92H1457.02C1456.15 116.92 1455.63 116.271 1455.63 115.623V31.1553C1455.63 30.3447 1454.94 29.6962 1454.07 29.6962H1432.45C1431.59 29.6962 1431.07 29.0477 1431.07 28.3992V5.05313C1431.07 4.2425 1431.59 3.594 1432.45 3.594H1509.26ZM1586.71 91.1417C1587.57 91.1417 1588.44 91.9523 1588.27 92.7629L1585.84 115.947C1585.67 116.757 1585.15 117.244 1584.29 117.244H1518.55C1517.68 117.244 1516.99 116.595 1516.99 115.623V5.37739C1516.99 4.72888 1517.51 4.08038 1518.37 4.08038H1584.29C1585.15 4.08038 1585.67 4.56676 1585.84 5.37739L1588.27 28.3992C1588.27 29.3719 1587.57 30.0204 1586.71 30.0204H1549.17C1548.3 30.0204 1547.61 30.6689 1547.61 31.4796V45.2602C1547.61 46.0708 1548.3 46.7193 1549.17 46.7193H1576.5C1577.37 46.7193 1578.06 47.3678 1578.06 48.1785V71.2003C1578.06 72.0109 1577.37 72.6594 1576.5 72.6594H1549.17C1548.3 72.6594 1547.61 73.3079 1547.61 74.1185V89.6826C1547.61 90.4932 1548.3 91.1417 1549.17 91.1417H1586.71ZM1700.52 95.0327C1701.21 95.5191 1701.39 96.4918 1700.87 96.9782C1689.11 111.569 1670.94 120 1651.74 120C1617.48 120 1589.8 93.4114 1589.8 60.5C1589.8 27.7507 1617.48 1 1651.74 1C1661.77 1 1671.46 3.26975 1680.28 7.64714C1687.89 11.5381 1694.81 16.8883 1700.18 23.2112C1700.7 23.8597 1700.52 24.6703 1699.83 25.1567L1679.24 39.2616C1678.73 39.748 1677.86 39.5858 1677.34 39.0994C1670.77 31.9659 1661.6 28.0749 1651.74 28.0749C1633.05 28.0749 1617.83 42.6662 1617.83 60.5C1617.83 78.4959 1633.05 93.0872 1651.74 93.0872C1661.94 93.0872 1671.46 88.7098 1678.03 81.252C1678.38 80.6035 1679.42 80.6035 1679.94 80.9278L1700.52 95.0327ZM1804.79 3.91826C1805.65 3.91826 1806.34 4.56676 1806.34 5.37739V115.785C1806.34 116.433 1805.65 117.082 1804.79 117.082H1777.11C1776.24 117.082 1775.55 116.433 1775.55 115.785V74.1185C1775.55 73.3079 1774.86 72.8215 1773.99 72.8215H1739.57C1738.7 72.8215 1738.01 73.3079 1738.01 74.1185V115.785C1738.01 116.433 1737.32 117.082 1736.63 117.082H1708.77C1707.91 117.082 1707.39 116.433 1707.39 115.785V5.37739C1707.39 4.56676 1707.91 3.91826 1708.77 3.91826H1736.63C1737.32 3.91826 1738.01 4.56676 1738.01 5.37739V45.4223C1738.01 46.233 1738.7 46.8815 1739.57 46.8815H1773.99C1774.86 46.8815 1775.55 46.233 1775.55 45.4223V5.37739C1775.55 4.56676 1776.24 3.91826 1777.11 3.91826H1804.79ZM1845.42 3.91826C1846.12 3.91826 1846.81 4.56676 1846.81 5.37739V115.785C1846.81 116.433 1846.12 117.082 1845.42 117.082H1817.57C1816.71 117.082 1816.19 116.433 1816.19 115.785V5.37739C1816.19 4.56676 1816.71 3.91826 1817.57 3.91826H1845.42ZM1927.3 91.1417C1928.16 91.1417 1929.03 91.9523 1928.85 92.7629L1926.43 115.947C1926.26 116.757 1925.74 117.244 1924.88 117.244H1859.14C1858.27 117.244 1857.58 116.595 1857.58 115.623V5.37739C1857.58 4.72888 1858.1 4.08038 1858.96 4.08038H1924.88C1925.74 4.08038 1926.26 4.56676 1926.43 5.37739L1928.85 28.3992C1928.85 29.3719 1928.16 30.0204 1927.3 30.0204H1889.76C1888.89 30.0204 1888.2 30.6689 1888.2 31.4796V45.2602C1888.2 46.0708 1888.89 46.7193 1889.76 46.7193H1917.09C1917.96 46.7193 1918.65 47.3678 1918.65 48.1785V71.2003C1918.65 72.0109 1917.96 72.6594 1917.09 72.6594H1889.76C1888.89 72.6594 1888.2 73.3079 1888.2 74.1185V89.6826C1888.2 90.4932 1888.89 91.1417 1889.76 91.1417H1927.3ZM2003.75 5.21525L2006 28.3992C2006 29.2098 2005.31 30.0204 2004.44 30.0204H1969.5C1968.63 30.0204 1967.94 30.6689 1967.94 31.4796V45.4223C1967.94 46.233 1968.63 46.8815 1969.5 46.8815H1995.27C1996.14 46.8815 1996.83 47.53 1996.66 48.3406L1996.49 71.5245C1996.49 72.3352 1995.79 72.8215 1995.1 72.8215H1969.5C1968.63 72.8215 1967.94 73.47 1967.94 74.2807V115.785C1967.94 116.433 1967.25 117.082 1966.56 117.082H1938.7C1937.84 117.082 1937.32 116.433 1937.32 115.785V5.37739C1937.32 4.56676 1937.84 3.91826 1938.7 3.91826H2002.19C2003.06 3.91826 2003.75 4.56676 2003.75 5.21525Z"/>
</mask>
<path d="M116.237 3.91826C116.929 3.91826 117.621 4.56676 117.621 5.37739V115.785C117.621 116.433 116.929 117.082 116.237 117.082H88.384C87.519 117.082 87 116.433 87 115.785V5.37739C87 4.56676 87.519 3.91826 88.384 3.91826H116.237ZM202.261 3.594C203.126 3.594 203.818 4.2425 203.818 5.05313V28.3992C203.818 29.0477 203.126 29.6962 202.261 29.6962H180.809C179.944 29.6962 179.252 30.3447 179.252 31.1553V115.623C179.252 116.271 178.733 116.92 177.868 116.92H150.016C149.151 116.92 148.632 116.271 148.632 115.623V31.1553C148.632 30.3447 147.94 29.6962 147.075 29.6962H125.45C124.585 29.6962 124.066 29.0477 124.066 28.3992V5.05313C124.066 4.2425 124.585 3.594 125.45 3.594H202.261ZM279.708 91.1417C280.573 91.1417 281.438 91.9523 281.265 92.7629L278.843 115.947C278.67 116.757 278.151 117.244 277.286 117.244H211.547C210.682 117.244 209.99 116.595 209.99 115.623V5.37739C209.99 4.72888 210.509 4.08038 211.374 4.08038H277.286C278.151 4.08038 278.67 4.56676 278.843 5.37739L281.265 28.3992C281.265 29.3719 280.573 30.0204 279.708 30.0204H242.168C241.303 30.0204 240.611 30.6689 240.611 31.4796V45.2602C240.611 46.0708 241.303 46.7193 242.168 46.7193H269.501C270.366 46.7193 271.058 47.3678 271.058 48.1785V71.2003C271.058 72.0109 270.366 72.6594 269.501 72.6594H242.168C241.303 72.6594 240.611 73.3079 240.611 74.1185V89.6826C240.611 90.4932 241.303 91.1417 242.168 91.1417H279.708ZM393.523 95.0327C394.215 95.5191 394.388 96.4918 393.869 96.9782C382.105 111.569 363.94 120 344.738 120C310.484 120 282.805 93.4114 282.805 60.5C282.805 27.7507 310.484 1 344.738 1C354.772 1 364.459 3.26975 373.282 7.64714C380.894 11.5381 387.814 16.8883 393.177 23.2112C393.696 23.8597 393.523 24.6703 392.831 25.1567L372.244 39.2616C371.725 39.748 370.86 39.5858 370.341 39.0994C363.768 31.9659 354.599 28.0749 344.738 28.0749C326.054 28.0749 310.83 42.6662 310.83 60.5C310.83 78.4959 326.054 93.0872 344.738 93.0872C354.945 93.0872 364.459 88.7098 371.033 81.252C371.379 80.6035 372.417 80.6035 372.936 80.9278L393.523 95.0327ZM497.786 3.91826C498.651 3.91826 499.343 4.56676 499.343 5.37739V115.785C499.343 116.433 498.651 117.082 497.786 117.082H470.107C469.242 117.082 468.55 116.433 468.55 115.785V74.1185C468.55 73.3079 467.858 72.8215 466.993 72.8215H432.566C431.701 72.8215 431.009 73.3079 431.009 74.1185V115.785C431.009 116.433 430.317 117.082 429.625 117.082H401.773C400.908 117.082 400.389 116.433 400.389 115.785V5.37739C400.389 4.56676 400.908 3.91826 401.773 3.91826H429.625C430.317 3.91826 431.009 4.56676 431.009 5.37739V45.4223C431.009 46.233 431.701 46.8815 432.566 46.8815H466.993C467.858 46.8815 468.55 46.233 468.55 45.4223V5.37739C468.55 4.56676 469.242 3.91826 470.107 3.91826H497.786ZM538.425 3.91826C539.117 3.91826 539.809 4.56676 539.809 5.37739V115.785C539.809 116.433 539.117 117.082 538.425 117.082H510.572C509.707 117.082 509.188 116.433 509.188 115.785V5.37739C509.188 4.56676 509.707 3.91826 510.572 3.91826H538.425ZM620.297 91.1417C621.162 91.1417 622.027 91.9523 621.854 92.7629L619.432 115.947C619.259 116.757 618.74 117.244 617.875 117.244H552.136C551.271 117.244 550.579 116.595 550.579 115.623V5.37739C550.579 4.72888 551.098 4.08038 551.963 4.08038H617.875C618.74 4.08038 619.259 4.56676 619.432 5.37739L621.854 28.3992C621.854 29.3719 621.162 30.0204 620.297 30.0204H582.757C581.892 30.0204 581.2 30.6689 581.2 31.4796V45.2602C581.2 46.0708 581.892 46.7193 582.757 46.7193H610.09C610.955 46.7193 611.647 47.3678 611.647 48.1785V71.2003C611.647 72.0109 610.955 72.6594 610.09 72.6594H582.757C581.892 72.6594 581.2 73.3079 581.2 74.1185V89.6826C581.2 90.4932 581.892 91.1417 582.757 91.1417H620.297ZM696.751 5.21525L699 28.3992C699 29.2098 698.308 30.0204 697.443 30.0204H662.498C661.633 30.0204 660.941 30.6689 660.941 31.4796V45.4223C660.941 46.233 661.633 46.8815 662.498 46.8815H688.274C689.139 46.8815 689.831 47.53 689.658 48.3406L689.485 71.5245C689.485 72.3352 688.793 72.8215 688.101 72.8215H662.498C661.633 72.8215 660.941 73.47 660.941 74.2807V115.785C660.941 116.433 660.249 117.082 659.557 117.082H631.704C630.839 117.082 630.32 116.433 630.32 115.785V5.37739C630.32 4.56676 630.839 3.91826 631.704 3.91826H695.194C696.059 3.91826 696.751 4.56676 696.751 5.21525Z" stroke="black" stroke-width="2" mask="url(#path-1-outside-1_476_94)"/>
<path d="M418.237 135.918C418.929 135.918 419.621 136.567 419.621 137.377V247.785C419.621 248.433 418.929 249.082 418.237 249.082H390.384C389.519 249.082 389 248.433 389 247.785V137.377C389 136.567 389.519 135.918 390.384 135.918H418.237ZM504.261 135.594C505.126 135.594 505.818 136.243 505.818 137.053V160.399C505.818 161.048 505.126 161.696 504.261 161.696H482.809C481.944 161.696 481.252 162.345 481.252 163.155V247.623C481.252 248.271 480.733 248.92 479.868 248.92H452.016C451.151 248.92 450.632 248.271 450.632 247.623V163.155C450.632 162.345 449.94 161.696 449.075 161.696H427.45C426.585 161.696 426.066 161.048 426.066 160.399V137.053C426.066 136.243 426.585 135.594 427.45 135.594H504.261ZM581.708 223.142C582.573 223.142 583.438 223.952 583.265 224.763L580.843 247.947C580.67 248.757 580.151 249.244 579.286 249.244H513.547C512.682 249.244 511.99 248.595 511.99 247.623V137.377C511.99 136.729 512.509 136.08 513.374 136.08H579.286C580.151 136.08 580.67 136.567 580.843 137.377L583.265 160.399C583.265 161.372 582.573 162.02 581.708 162.02H544.168C543.303 162.02 542.611 162.669 542.611 163.48V177.26C542.611 178.071 543.303 178.719 544.168 178.719H571.501C572.366 178.719 573.058 179.368 573.058 180.178V203.2C573.058 204.011 572.366 204.659 571.501 204.659H544.168C543.303 204.659 542.611 205.308 542.611 206.119V221.683C542.611 222.493 543.303 223.142 544.168 223.142H581.708ZM695.523 227.033C696.215 227.519 696.388 228.492 695.869 228.978C684.105 243.569 665.94 252 646.738 252C612.484 252 584.805 225.411 584.805 192.5C584.805 159.751 612.484 133 646.738 133C656.772 133 666.459 135.27 675.282 139.647C682.894 143.538 689.814 148.888 695.177 155.211C695.696 155.86 695.523 156.67 694.831 157.157L674.244 171.262C673.725 171.748 672.86 171.586 672.341 171.099C665.768 163.966 656.599 160.075 646.738 160.075C628.054 160.075 612.83 174.666 612.83 192.5C612.83 210.496 628.054 225.087 646.738 225.087C656.945 225.087 666.46 220.71 673.033 213.252C673.379 212.604 674.417 212.604 674.936 212.928L695.523 227.033ZM799.786 135.918C800.651 135.918 801.343 136.567 801.343 137.377V247.785C801.343 248.433 800.651 249.082 799.786 249.082H772.107C771.242 249.082 770.55 248.433 770.55 247.785V206.119C770.55 205.308 769.858 204.822 768.993 204.822H734.566C733.701 204.822 733.009 205.308 733.009 206.119V247.785C733.009 248.433 732.317 249.082 731.625 249.082H703.773C702.908 249.082 702.389 248.433 702.389 247.785V137.377C702.389 136.567 702.908 135.918 703.773 135.918H731.625C732.317 135.918 733.009 136.567 733.009 137.377V177.422C733.009 178.233 733.701 178.881 734.566 178.881H768.993C769.858 178.881 770.55 178.233 770.55 177.422V137.377C770.55 136.567 771.242 135.918 772.107 135.918H799.786ZM840.425 135.918C841.117 135.918 841.809 136.567 841.809 137.377V247.785C841.809 248.433 841.117 249.082 840.425 249.082H812.572C811.707 249.082 811.188 248.433 811.188 247.785V137.377C811.188 136.567 811.707 135.918 812.572 135.918H840.425ZM922.297 223.142C923.162 223.142 924.027 223.952 923.854 224.763L921.432 247.947C921.259 248.757 920.74 249.244 919.875 249.244H854.136C853.271 249.244 852.579 248.595 852.579 247.623V137.377C852.579 136.729 853.098 136.08 853.963 136.08H919.875C920.74 136.08 921.259 136.567 921.432 137.377L923.854 160.399C923.854 161.372 923.162 162.02 922.297 162.02H884.757C883.892 162.02 883.2 162.669 883.2 163.48V177.26C883.2 178.071 883.892 178.719 884.757 178.719H912.09C912.955 178.719 913.647 179.368 913.647 180.178V203.2C913.647 204.011 912.955 204.659 912.09 204.659H884.757C883.892 204.659 883.2 205.308 883.2 206.119V221.683C883.2 222.493 883.892 223.142 884.757 223.142H922.297ZM998.751 137.215L1001 160.399C1001 161.21 1000.31 162.02 999.443 162.02H964.498C963.633 162.02 962.941 162.669 962.941 163.48V177.422C962.941 178.233 963.633 178.881 964.498 178.881H990.274C991.139 178.881 991.831 179.53 991.658 180.341L991.485 203.525C991.485 204.335 990.793 204.822 990.101 204.822H964.498C963.633 204.822 962.941 205.47 962.941 206.281V247.785C962.941 248.433 962.249 249.082 961.557 249.082H933.704C932.839 249.082 932.32 248.433 932.32 247.785V137.377C932.32 136.567 932.839 135.918 933.704 135.918H997.194C998.059 135.918 998.751 136.567 998.751 137.215Z" stroke="black" stroke-width="2" mask="url(#path-1-outside-1_476_94)"/>
<path d="M879.237 265.918C879.929 265.918 880.621 266.567 880.621 267.377V377.785C880.621 378.433 879.929 379.082 879.237 379.082H851.384C850.519 379.082 850 378.433 850 377.785V267.377C850 266.567 850.519 265.918 851.384 265.918H879.237ZM965.261 265.594C966.126 265.594 966.818 266.243 966.818 267.053V290.399C966.818 291.048 966.126 291.696 965.261 291.696H943.809C942.944 291.696 942.252 292.345 942.252 293.155V377.623C942.252 378.271 941.733 378.92 940.868 378.92H913.016C912.151 378.92 911.632 378.271 911.632 377.623V293.155C911.632 292.345 910.94 291.696 910.075 291.696H888.45C887.585 291.696 887.066 291.048 887.066 290.399V267.053C887.066 266.243 887.585 265.594 888.45 265.594H965.261ZM1042.71 353.142C1043.57 353.142 1044.44 353.952 1044.27 354.763L1041.84 377.947C1041.67 378.757 1041.15 379.244 1040.29 379.244H974.547C973.682 379.244 972.99 378.595 972.99 377.623V267.377C972.99 266.729 973.509 266.08 974.374 266.08H1040.29C1041.15 266.08 1041.67 266.567 1041.84 267.377L1044.27 290.399C1044.27 291.372 1043.57 292.02 1042.71 292.02H1005.17C1004.3 292.02 1003.61 292.669 1003.61 293.48V307.26C1003.61 308.071 1004.3 308.719 1005.17 308.719H1032.5C1033.37 308.719 1034.06 309.368 1034.06 310.178V333.2C1034.06 334.011 1033.37 334.659 1032.5 334.659H1005.17C1004.3 334.659 1003.61 335.308 1003.61 336.119V351.683C1003.61 352.493 1004.3 353.142 1005.17 353.142H1042.71ZM1156.52 357.033C1157.22 357.519 1157.39 358.492 1156.87 358.978C1145.11 373.569 1126.94 382 1107.74 382C1073.48 382 1045.8 355.411 1045.8 322.5C1045.8 289.751 1073.48 263 1107.74 263C1117.77 263 1127.46 265.27 1136.28 269.647C1143.89 273.538 1150.81 278.888 1156.18 285.211C1156.7 285.86 1156.52 286.67 1155.83 287.157L1135.24 301.262C1134.73 301.748 1133.86 301.586 1133.34 301.099C1126.77 293.966 1117.6 290.075 1107.74 290.075C1089.05 290.075 1073.83 304.666 1073.83 322.5C1073.83 340.496 1089.05 355.087 1107.74 355.087C1117.94 355.087 1127.46 350.71 1134.03 343.252C1134.38 342.604 1135.42 342.604 1135.94 342.928L1156.52 357.033ZM1260.79 265.918C1261.65 265.918 1262.34 266.567 1262.34 267.377V377.785C1262.34 378.433 1261.65 379.082 1260.79 379.082H1233.11C1232.24 379.082 1231.55 378.433 1231.55 377.785V336.119C1231.55 335.308 1230.86 334.822 1229.99 334.822H1195.57C1194.7 334.822 1194.01 335.308 1194.01 336.119V377.785C1194.01 378.433 1193.32 379.082 1192.63 379.082H1164.77C1163.91 379.082 1163.39 378.433 1163.39 377.785V267.377C1163.39 266.567 1163.91 265.918 1164.77 265.918H1192.63C1193.32 265.918 1194.01 266.567 1194.01 267.377V307.422C1194.01 308.233 1194.7 308.881 1195.57 308.881H1229.99C1230.86 308.881 1231.55 308.233 1231.55 307.422V267.377C1231.55 266.567 1232.24 265.918 1233.11 265.918H1260.79ZM1301.42 265.918C1302.12 265.918 1302.81 266.567 1302.81 267.377V377.785C1302.81 378.433 1302.12 379.082 1301.42 379.082H1273.57C1272.71 379.082 1272.19 378.433 1272.19 377.785V267.377C1272.19 266.567 1272.71 265.918 1273.57 265.918H1301.42ZM1383.3 353.142C1384.16 353.142 1385.03 353.952 1384.85 354.763L1382.43 377.947C1382.26 378.757 1381.74 379.244 1380.88 379.244H1315.14C1314.27 379.244 1313.58 378.595 1313.58 377.623V267.377C1313.58 266.729 1314.1 266.08 1314.96 266.08H1380.88C1381.74 266.08 1382.26 266.567 1382.43 267.377L1384.85 290.399C1384.85 291.372 1384.16 292.02 1383.3 292.02H1345.76C1344.89 292.02 1344.2 292.669 1344.2 293.48V307.26C1344.2 308.071 1344.89 308.719 1345.76 308.719H1373.09C1373.96 308.719 1374.65 309.368 1374.65 310.178V333.2C1374.65 334.011 1373.96 334.659 1373.09 334.659H1345.76C1344.89 334.659 1344.2 335.308 1344.2 336.119V351.683C1344.2 352.493 1344.89 353.142 1345.76 353.142H1383.3ZM1459.75 267.215L1462 290.399C1462 291.21 1461.31 292.02 1460.44 292.02H1425.5C1424.63 292.02 1423.94 292.669 1423.94 293.48V307.422C1423.94 308.233 1424.63 308.881 1425.5 308.881H1451.27C1452.14 308.881 1452.83 309.53 1452.66 310.341L1452.49 333.525C1452.49 334.335 1451.79 334.822 1451.1 334.822H1425.5C1424.63 334.822 1423.94 335.47 1423.94 336.281V377.785C1423.94 378.433 1423.25 379.082 1422.56 379.082H1394.7C1393.84 379.082 1393.32 378.433 1393.32 377.785V267.377C1393.32 266.567 1393.84 265.918 1394.7 265.918H1458.19C1459.06 265.918 1459.75 266.567 1459.75 267.215Z" stroke="black" stroke-width="2" mask="url(#path-1-outside-1_476_94)"/>
<path d="M1063.24 135.918C1063.93 135.918 1064.62 136.567 1064.62 137.377V247.785C1064.62 248.433 1063.93 249.082 1063.24 249.082H1035.38C1034.52 249.082 1034 248.433 1034 247.785V137.377C1034 136.567 1034.52 135.918 1035.38 135.918H1063.24ZM1149.26 135.594C1150.13 135.594 1150.82 136.243 1150.82 137.053V160.399C1150.82 161.048 1150.13 161.696 1149.26 161.696H1127.81C1126.94 161.696 1126.25 162.345 1126.25 163.155V247.623C1126.25 248.271 1125.73 248.92 1124.87 248.92H1097.02C1096.15 248.92 1095.63 248.271 1095.63 247.623V163.155C1095.63 162.345 1094.94 161.696 1094.07 161.696H1072.45C1071.59 161.696 1071.07 161.048 1071.07 160.399V137.053C1071.07 136.243 1071.59 135.594 1072.45 135.594H1149.26ZM1226.71 223.142C1227.57 223.142 1228.44 223.952 1228.27 224.763L1225.84 247.947C1225.67 248.757 1225.15 249.244 1224.29 249.244H1158.55C1157.68 249.244 1156.99 248.595 1156.99 247.623V137.377C1156.99 136.729 1157.51 136.08 1158.37 136.08H1224.29C1225.15 136.08 1225.67 136.567 1225.84 137.377L1228.27 160.399C1228.27 161.372 1227.57 162.02 1226.71 162.02H1189.17C1188.3 162.02 1187.61 162.669 1187.61 163.48V177.26C1187.61 178.071 1188.3 178.719 1189.17 178.719H1216.5C1217.37 178.719 1218.06 179.368 1218.06 180.178V203.2C1218.06 204.011 1217.37 204.659 1216.5 204.659H1189.17C1188.3 204.659 1187.61 205.308 1187.61 206.119V221.683C1187.61 222.493 1188.3 223.142 1189.17 223.142H1226.71ZM1340.52 227.033C1341.22 227.519 1341.39 228.492 1340.87 228.978C1329.11 243.569 1310.94 252 1291.74 252C1257.48 252 1229.8 225.411 1229.8 192.5C1229.8 159.751 1257.48 133 1291.74 133C1301.77 133 1311.46 135.27 1320.28 139.647C1327.89 143.538 1334.81 148.888 1340.18 155.211C1340.7 155.86 1340.52 156.67 1339.83 157.157L1319.24 171.262C1318.73 171.748 1317.86 171.586 1317.34 171.099C1310.77 163.966 1301.6 160.075 1291.74 160.075C1273.05 160.075 1257.83 174.666 1257.83 192.5C1257.83 210.496 1273.05 225.087 1291.74 225.087C1301.94 225.087 1311.46 220.71 1318.03 213.252C1318.38 212.604 1319.42 212.604 1319.94 212.928L1340.52 227.033ZM1444.79 135.918C1445.65 135.918 1446.34 136.567 1446.34 137.377V247.785C1446.34 248.433 1445.65 249.082 1444.79 249.082H1417.11C1416.24 249.082 1415.55 248.433 1415.55 247.785V206.119C1415.55 205.308 1414.86 204.822 1413.99 204.822H1379.57C1378.7 204.822 1378.01 205.308 1378.01 206.119V247.785C1378.01 248.433 1377.32 249.082 1376.63 249.082H1348.77C1347.91 249.082 1347.39 248.433 1347.39 247.785V137.377C1347.39 136.567 1347.91 135.918 1348.77 135.918H1376.63C1377.32 135.918 1378.01 136.567 1378.01 137.377V177.422C1378.01 178.233 1378.7 178.881 1379.57 178.881H1413.99C1414.86 178.881 1415.55 178.233 1415.55 177.422V137.377C1415.55 136.567 1416.24 135.918 1417.11 135.918H1444.79ZM1485.42 135.918C1486.12 135.918 1486.81 136.567 1486.81 137.377V247.785C1486.81 248.433 1486.12 249.082 1485.42 249.082H1457.57C1456.71 249.082 1456.19 248.433 1456.19 247.785V137.377C1456.19 136.567 1456.71 135.918 1457.57 135.918H1485.42ZM1567.3 223.142C1568.16 223.142 1569.03 223.952 1568.85 224.763L1566.43 247.947C1566.26 248.757 1565.74 249.244 1564.88 249.244H1499.14C1498.27 249.244 1497.58 248.595 1497.58 247.623V137.377C1497.58 136.729 1498.1 136.08 1498.96 136.08H1564.88C1565.74 136.08 1566.26 136.567 1566.43 137.377L1568.85 160.399C1568.85 161.372 1568.16 162.02 1567.3 162.02H1529.76C1528.89 162.02 1528.2 162.669 1528.2 163.48V177.26C1528.2 178.071 1528.89 178.719 1529.76 178.719H1557.09C1557.96 178.719 1558.65 179.368 1558.65 180.178V203.2C1558.65 204.011 1557.96 204.659 1557.09 204.659H1529.76C1528.89 204.659 1528.2 205.308 1528.2 206.119V221.683C1528.2 222.493 1528.89 223.142 1529.76 223.142H1567.3ZM1643.75 137.215L1646 160.399C1646 161.21 1645.31 162.02 1644.44 162.02H1609.5C1608.63 162.02 1607.94 162.669 1607.94 163.48V177.422C1607.94 178.233 1608.63 178.881 1609.5 178.881H1635.27C1636.14 178.881 1636.83 179.53 1636.66 180.341L1636.49 203.525C1636.49 204.335 1635.79 204.822 1635.1 204.822H1609.5C1608.63 204.822 1607.94 205.47 1607.94 206.281V247.785C1607.94 248.433 1607.25 249.082 1606.56 249.082H1578.7C1577.84 249.082 1577.32 248.433 1577.32 247.785V137.377C1577.32 136.567 1577.84 135.918 1578.7 135.918H1642.19C1643.06 135.918 1643.75 136.567 1643.75 137.215Z" stroke="black" stroke-width="2" mask="url(#path-1-outside-1_476_94)"/>
<path d="M773.237 3.91826C773.929 3.91826 774.621 4.56676 774.621 5.37739V115.785C774.621 116.433 773.929 117.082 773.237 117.082H745.384C744.519 117.082 744 116.433 744 115.785V5.37739C744 4.56676 744.519 3.91826 745.384 3.91826H773.237ZM859.261 3.594C860.126 3.594 860.818 4.2425 860.818 5.05313V28.3992C860.818 29.0477 860.126 29.6962 859.261 29.6962H837.809C836.944 29.6962 836.252 30.3447 836.252 31.1553V115.623C836.252 116.271 835.733 116.92 834.868 116.92H807.016C806.151 116.92 805.632 116.271 805.632 115.623V31.1553C805.632 30.3447 804.94 29.6962 804.075 29.6962H782.45C781.585 29.6962 781.066 29.0477 781.066 28.3992V5.05313C781.066 4.2425 781.585 3.594 782.45 3.594H859.261ZM936.708 91.1417C937.573 91.1417 938.438 91.9523 938.265 92.7629L935.843 115.947C935.67 116.757 935.151 117.244 934.286 117.244H868.547C867.682 117.244 866.99 116.595 866.99 115.623V5.37739C866.99 4.72888 867.509 4.08038 868.374 4.08038H934.286C935.151 4.08038 935.67 4.56676 935.843 5.37739L938.265 28.3992C938.265 29.3719 937.573 30.0204 936.708 30.0204H899.168C898.303 30.0204 897.611 30.6689 897.611 31.4796V45.2602C897.611 46.0708 898.303 46.7193 899.168 46.7193H926.501C927.366 46.7193 928.058 47.3678 928.058 48.1785V71.2003C928.058 72.0109 927.366 72.6594 926.501 72.6594H899.168C898.303 72.6594 897.611 73.3079 897.611 74.1185V89.6826C897.611 90.4932 898.303 91.1417 899.168 91.1417H936.708ZM1050.52 95.0327C1051.22 95.5191 1051.39 96.4918 1050.87 96.9782C1039.11 111.569 1020.94 120 1001.74 120C967.484 120 939.805 93.4114 939.805 60.5C939.805 27.7507 967.484 1 1001.74 1C1011.77 1 1021.46 3.26975 1030.28 7.64714C1037.89 11.5381 1044.81 16.8883 1050.18 23.2112C1050.7 23.8597 1050.52 24.6703 1049.83 25.1567L1029.24 39.2616C1028.73 39.748 1027.86 39.5858 1027.34 39.0994C1020.77 31.9659 1011.6 28.0749 1001.74 28.0749C983.054 28.0749 967.83 42.6662 967.83 60.5C967.83 78.4959 983.054 93.0872 1001.74 93.0872C1011.94 93.0872 1021.46 88.7098 1028.03 81.252C1028.38 80.6035 1029.42 80.6035 1029.94 80.9278L1050.52 95.0327ZM1154.79 3.91826C1155.65 3.91826 1156.34 4.56676 1156.34 5.37739V115.785C1156.34 116.433 1155.65 117.082 1154.79 117.082H1127.11C1126.24 117.082 1125.55 116.433 1125.55 115.785V74.1185C1125.55 73.3079 1124.86 72.8215 1123.99 72.8215H1089.57C1088.7 72.8215 1088.01 73.3079 1088.01 74.1185V115.785C1088.01 116.433 1087.32 117.082 1086.63 117.082H1058.77C1057.91 117.082 1057.39 116.433 1057.39 115.785V5.37739C1057.39 4.56676 1057.91 3.91826 1058.77 3.91826H1086.63C1087.32 3.91826 1088.01 4.56676 1088.01 5.37739V45.4223C1088.01 46.233 1088.7 46.8815 1089.57 46.8815H1123.99C1124.86 46.8815 1125.55 46.233 1125.55 45.4223V5.37739C1125.55 4.56676 1126.24 3.91826 1127.11 3.91826H1154.79ZM1195.42 3.91826C1196.12 3.91826 1196.81 4.56676 1196.81 5.37739V115.785C1196.81 116.433 1196.12 117.082 1195.42 117.082H1167.57C1166.71 117.082 1166.19 116.433 1166.19 115.785V5.37739C1166.19 4.56676 1166.71 3.91826 1167.57 3.91826H1195.42ZM1277.3 91.1417C1278.16 91.1417 1279.03 91.9523 1278.85 92.7629L1276.43 115.947C1276.26 116.757 1275.74 117.244 1274.88 117.244H1209.14C1208.27 117.244 1207.58 116.595 1207.58 115.623V5.37739C1207.58 4.72888 1208.1 4.08038 1208.96 4.08038H1274.88C1275.74 4.08038 1276.26 4.56676 1276.43 5.37739L1278.85 28.3992C1278.85 29.3719 1278.16 30.0204 1277.3 30.0204H1239.76C1238.89 30.0204 1238.2 30.6689 1238.2 31.4796V45.2602C1238.2 46.0708 1238.89 46.7193 1239.76 46.7193H1267.09C1267.96 46.7193 1268.65 47.3678 1268.65 48.1785V71.2003C1268.65 72.0109 1267.96 72.6594 1267.09 72.6594H1239.76C1238.89 72.6594 1238.2 73.3079 1238.2 74.1185V89.6826C1238.2 90.4932 1238.89 91.1417 1239.76 91.1417H1277.3ZM1353.75 5.21525L1356 28.3992C1356 29.2098 1355.31 30.0204 1354.44 30.0204H1319.5C1318.63 30.0204 1317.94 30.6689 1317.94 31.4796V45.4223C1317.94 46.233 1318.63 46.8815 1319.5 46.8815H1345.27C1346.14 46.8815 1346.83 47.53 1346.66 48.3406L1346.49 71.5245C1346.49 72.3352 1345.79 72.8215 1345.1 72.8215H1319.5C1318.63 72.8215 1317.94 73.47 1317.94 74.2807V115.785C1317.94 116.433 1317.25 117.082 1316.56 117.082H1288.7C1287.84 117.082 1287.32 116.433 1287.32 115.785V5.37739C1287.32 4.56676 1287.84 3.91826 1288.7 3.91826H1352.19C1353.06 3.91826 1353.75 4.56676 1353.75 5.21525Z" stroke="black" stroke-width="2" mask="url(#path-1-outside-1_476_94)"/>
<path d="M-222.763 135.918C-222.071 135.918 -221.379 136.567 -221.379 137.377V247.785C-221.379 248.433 -222.071 249.082 -222.763 249.082H-250.616C-251.481 249.082 -252 248.433 -252 247.785V137.377C-252 136.567 -251.481 135.918 -250.616 135.918H-222.763ZM-136.739 135.594C-135.874 135.594 -135.182 136.243 -135.182 137.053V160.399C-135.182 161.048 -135.874 161.696 -136.739 161.696H-158.191C-159.056 161.696 -159.748 162.345 -159.748 163.155V247.623C-159.748 248.271 -160.267 248.92 -161.132 248.92H-188.984C-189.849 248.92 -190.368 248.271 -190.368 247.623V163.155C-190.368 162.345 -191.06 161.696 -191.925 161.696H-213.55C-214.415 161.696 -214.934 161.048 -214.934 160.399V137.053C-214.934 136.243 -214.415 135.594 -213.55 135.594H-136.739ZM-59.2917 223.142C-58.4267 223.142 -57.5617 223.952 -57.7347 224.763L-60.1567 247.947C-60.3297 248.757 -60.8486 249.244 -61.7136 249.244H-127.453C-128.318 249.244 -129.01 248.595 -129.01 247.623V137.377C-129.01 136.729 -128.491 136.08 -127.626 136.08H-61.7136C-60.8486 136.08 -60.3297 136.567 -60.1567 137.377L-57.7347 160.399C-57.7347 161.372 -58.4267 162.02 -59.2917 162.02H-96.8321C-97.6971 162.02 -98.3891 162.669 -98.3891 163.48V177.26C-98.3891 178.071 -97.6971 178.719 -96.8321 178.719H-69.4985C-68.6336 178.719 -67.9415 179.368 -67.9415 180.178V203.2C-67.9415 204.011 -68.6336 204.659 -69.4985 204.659H-96.8321C-97.6971 204.659 -98.3891 205.308 -98.3891 206.119V221.683C-98.3891 222.493 -97.6971 223.142 -96.8321 223.142H-59.2917ZM54.523 227.033C55.2151 227.519 55.388 228.492 54.869 228.978C43.1052 243.569 24.9405 252 5.73779 252C-28.5157 252 -56.1953 225.411 -56.1953 192.5C-56.1953 159.751 -28.5157 133 5.73779 133C15.7716 133 25.4595 135.27 34.2823 139.647C41.8942 143.538 48.8141 148.888 54.1771 155.211C54.696 155.86 54.523 156.67 53.8311 157.157L33.2444 171.262C32.7254 171.748 31.8604 171.586 31.3414 171.099C24.7675 163.966 15.5986 160.075 5.73779 160.075C-12.9459 160.075 -28.1697 174.666 -28.1697 192.5C-28.1697 210.496 -12.9459 225.087 5.73779 225.087C15.9446 225.087 25.4595 220.71 32.0334 213.252C32.3794 212.604 33.4174 212.604 33.9363 212.928L54.523 227.033ZM158.786 135.918C159.651 135.918 160.343 136.567 160.343 137.377V247.785C160.343 248.433 159.651 249.082 158.786 249.082H131.107C130.242 249.082 129.55 248.433 129.55 247.785V206.119C129.55 205.308 128.858 204.822 127.993 204.822H93.5664C92.7014 204.822 92.0094 205.308 92.0094 206.119V247.785C92.0094 248.433 91.3175 249.082 90.6255 249.082H62.7729C61.9079 249.082 61.3889 248.433 61.3889 247.785V137.377C61.3889 136.567 61.9079 135.918 62.7729 135.918H90.6255C91.3175 135.918 92.0094 136.567 92.0094 137.377V177.422C92.0094 178.233 92.7014 178.881 93.5664 178.881H127.993C128.858 178.881 129.55 178.233 129.55 177.422V137.377C129.55 136.567 130.242 135.918 131.107 135.918H158.786ZM199.425 135.918C200.117 135.918 200.809 136.567 200.809 137.377V247.785C200.809 248.433 200.117 249.082 199.425 249.082H171.572C170.707 249.082 170.188 248.433 170.188 247.785V137.377C170.188 136.567 170.707 135.918 171.572 135.918H199.425ZM281.297 223.142C282.162 223.142 283.027 223.952 282.854 224.763L280.432 247.947C280.259 248.757 279.74 249.244 278.875 249.244H213.136C212.271 249.244 211.579 248.595 211.579 247.623V137.377C211.579 136.729 212.098 136.08 212.963 136.08H278.875C279.74 136.08 280.259 136.567 280.432 137.377L282.854 160.399C282.854 161.372 282.162 162.02 281.297 162.02H243.757C242.892 162.02 242.2 162.669 242.2 163.48V177.26C242.2 178.071 242.892 178.719 243.757 178.719H271.09C271.955 178.719 272.647 179.368 272.647 180.178V203.2C272.647 204.011 271.955 204.659 271.09 204.659H243.757C242.892 204.659 242.2 205.308 242.2 206.119V221.683C242.2 222.493 242.892 223.142 243.757 223.142H281.297ZM357.751 137.215L360 160.399C360 161.21 359.308 162.02 358.443 162.02H323.498C322.633 162.02 321.941 162.669 321.941 163.48V177.422C321.941 178.233 322.633 178.881 323.498 178.881H349.274C350.139 178.881 350.831 179.53 350.658 180.341L350.485 203.525C350.485 204.335 349.793 204.822 349.101 204.822H323.498C322.633 204.822 321.941 205.47 321.941 206.281V247.785C321.941 248.433 321.249 249.082 320.557 249.082H292.704C291.839 249.082 291.32 248.433 291.32 247.785V137.377C291.32 136.567 291.839 135.918 292.704 135.918H356.194C357.059 135.918 357.751 136.567 357.751 137.215Z" stroke="black" stroke-width="2" mask="url(#path-1-outside-1_476_94)"/>
<path d="M234.237 265.918C234.929 265.918 235.621 266.567 235.621 267.377V377.785C235.621 378.433 234.929 379.082 234.237 379.082H206.384C205.519 379.082 205 378.433 205 377.785V267.377C205 266.567 205.519 265.918 206.384 265.918H234.237ZM320.261 265.594C321.126 265.594 321.818 266.243 321.818 267.053V290.399C321.818 291.048 321.126 291.696 320.261 291.696H298.809C297.944 291.696 297.252 292.345 297.252 293.155V377.623C297.252 378.271 296.733 378.92 295.868 378.92H268.016C267.151 378.92 266.632 378.271 266.632 377.623V293.155C266.632 292.345 265.94 291.696 265.075 291.696H243.45C242.585 291.696 242.066 291.048 242.066 290.399V267.053C242.066 266.243 242.585 265.594 243.45 265.594H320.261ZM397.708 353.142C398.573 353.142 399.438 353.952 399.265 354.763L396.843 377.947C396.67 378.757 396.151 379.244 395.286 379.244H329.547C328.682 379.244 327.99 378.595 327.99 377.623V267.377C327.99 266.729 328.509 266.08 329.374 266.08H395.286C396.151 266.08 396.67 266.567 396.843 267.377L399.265 290.399C399.265 291.372 398.573 292.02 397.708 292.02H360.168C359.303 292.02 358.611 292.669 358.611 293.48V307.26C358.611 308.071 359.303 308.719 360.168 308.719H387.501C388.366 308.719 389.058 309.368 389.058 310.178V333.2C389.058 334.011 388.366 334.659 387.501 334.659H360.168C359.303 334.659 358.611 335.308 358.611 336.119V351.683C358.611 352.493 359.303 353.142 360.168 353.142H397.708ZM511.523 357.033C512.215 357.519 512.388 358.492 511.869 358.978C500.105 373.569 481.94 382 462.738 382C428.484 382 400.805 355.411 400.805 322.5C400.805 289.751 428.484 263 462.738 263C472.772 263 482.459 265.27 491.282 269.647C498.894 273.538 505.814 278.888 511.177 285.211C511.696 285.86 511.523 286.67 510.831 287.157L490.244 301.262C489.725 301.748 488.86 301.586 488.341 301.099C481.768 293.966 472.599 290.075 462.738 290.075C444.054 290.075 428.83 304.666 428.83 322.5C428.83 340.496 444.054 355.087 462.738 355.087C472.945 355.087 482.459 350.71 489.033 343.252C489.379 342.604 490.417 342.604 490.936 342.928L511.523 357.033ZM615.786 265.918C616.651 265.918 617.343 266.567 617.343 267.377V377.785C617.343 378.433 616.651 379.082 615.786 379.082H588.107C587.242 379.082 586.55 378.433 586.55 377.785V336.119C586.55 335.308 585.858 334.822 584.993 334.822H550.566C549.701 334.822 549.009 335.308 549.009 336.119V377.785C549.009 378.433 548.317 379.082 547.625 379.082H519.773C518.908 379.082 518.389 378.433 518.389 377.785V267.377C518.389 266.567 518.908 265.918 519.773 265.918H547.625C548.317 265.918 549.009 266.567 549.009 267.377V307.422C549.009 308.233 549.701 308.881 550.566 308.881H584.993C585.858 308.881 586.55 308.233 586.55 307.422V267.377C586.55 266.567 587.242 265.918 588.107 265.918H615.786ZM656.425 265.918C657.117 265.918 657.809 266.567 657.809 267.377V377.785C657.809 378.433 657.117 379.082 656.425 379.082H628.572C627.707 379.082 627.188 378.433 627.188 377.785V267.377C627.188 266.567 627.707 265.918 628.572 265.918H656.425ZM738.297 353.142C739.162 353.142 740.027 353.952 739.854 354.763L737.432 377.947C737.259 378.757 736.74 379.244 735.875 379.244H670.136C669.271 379.244 668.579 378.595 668.579 377.623V267.377C668.579 266.729 669.098 266.08 669.963 266.08H735.875C736.74 266.08 737.259 266.567 737.432 267.377L739.854 290.399C739.854 291.372 739.162 292.02 738.297 292.02H700.757C699.892 292.02 699.2 292.669 699.2 293.48V307.26C699.2 308.071 699.892 308.719 700.757 308.719H728.09C728.955 308.719 729.647 309.368 729.647 310.178V333.2C729.647 334.011 728.955 334.659 728.09 334.659H700.757C699.892 334.659 699.2 335.308 699.2 336.119V351.683C699.2 352.493 699.892 353.142 700.757 353.142H738.297ZM814.751 267.215L817 290.399C817 291.21 816.308 292.02 815.443 292.02H780.498C779.633 292.02 778.941 292.669 778.941 293.48V307.422C778.941 308.233 779.633 308.881 780.498 308.881H806.274C807.139 308.881 807.831 309.53 807.658 310.341L807.485 333.525C807.485 334.335 806.793 334.822 806.101 334.822H780.498C779.633 334.822 778.941 335.47 778.941 336.281V377.785C778.941 378.433 778.249 379.082 777.557 379.082H749.704C748.839 379.082 748.32 378.433 748.32 377.785V267.377C748.32 266.567 748.839 265.918 749.704 265.918H813.194C814.059 265.918 814.751 266.567 814.751 267.215Z" stroke="black" stroke-width="2" mask="url(#path-1-outside-1_476_94)"/>
<path d="M-415.763 263.918C-415.071 263.918 -414.379 264.567 -414.379 265.377V375.785C-414.379 376.433 -415.071 377.082 -415.763 377.082H-443.616C-444.481 377.082 -445 376.433 -445 375.785V265.377C-445 264.567 -444.481 263.918 -443.616 263.918H-415.763ZM-329.739 263.594C-328.874 263.594 -328.182 264.243 -328.182 265.053V288.399C-328.182 289.048 -328.874 289.696 -329.739 289.696H-351.191C-352.056 289.696 -352.748 290.345 -352.748 291.155V375.623C-352.748 376.271 -353.267 376.92 -354.132 376.92H-381.984C-382.849 376.92 -383.368 376.271 -383.368 375.623V291.155C-383.368 290.345 -384.06 289.696 -384.925 289.696H-406.55C-407.415 289.696 -407.934 289.048 -407.934 288.399V265.053C-407.934 264.243 -407.415 263.594 -406.55 263.594H-329.739ZM-252.292 351.142C-251.427 351.142 -250.562 351.952 -250.735 352.763L-253.157 375.947C-253.33 376.757 -253.849 377.244 -254.714 377.244H-320.453C-321.318 377.244 -322.01 376.595 -322.01 375.623V265.377C-322.01 264.729 -321.491 264.08 -320.626 264.08H-254.714C-253.849 264.08 -253.33 264.567 -253.157 265.377L-250.735 288.399C-250.735 289.372 -251.427 290.02 -252.292 290.02H-289.832C-290.697 290.02 -291.389 290.669 -291.389 291.48V305.26C-291.389 306.071 -290.697 306.719 -289.832 306.719H-262.499C-261.634 306.719 -260.942 307.368 -260.942 308.178V331.2C-260.942 332.011 -261.634 332.659 -262.499 332.659H-289.832C-290.697 332.659 -291.389 333.308 -291.389 334.119V349.683C-291.389 350.493 -290.697 351.142 -289.832 351.142H-252.292ZM-138.477 355.033C-137.785 355.519 -137.612 356.492 -138.131 356.978C-149.895 371.569 -168.06 380 -187.262 380C-221.516 380 -249.195 353.411 -249.195 320.5C-249.195 287.751 -221.516 261 -187.262 261C-177.228 261 -167.541 263.27 -158.718 267.647C-151.106 271.538 -144.186 276.888 -138.823 283.211C-138.304 283.86 -138.477 284.67 -139.169 285.157L-159.756 299.262C-160.275 299.748 -161.14 299.586 -161.659 299.099C-168.233 291.966 -177.401 288.075 -187.262 288.075C-205.946 288.075 -221.17 302.666 -221.17 320.5C-221.17 338.496 -205.946 353.087 -187.262 353.087C-177.055 353.087 -167.541 348.71 -160.967 341.252C-160.621 340.604 -159.583 340.604 -159.064 340.928L-138.477 355.033ZM-34.2136 263.918C-33.3486 263.918 -32.6566 264.567 -32.6566 265.377V375.785C-32.6566 376.433 -33.3486 377.082 -34.2136 377.082H-61.8932C-62.7581 377.082 -63.4501 376.433 -63.4501 375.785V334.119C-63.4501 333.308 -64.1421 332.822 -65.0071 332.822H-99.4336C-100.299 332.822 -100.991 333.308 -100.991 334.119V375.785C-100.991 376.433 -101.683 377.082 -102.375 377.082H-130.227C-131.092 377.082 -131.611 376.433 -131.611 375.785V265.377C-131.611 264.567 -131.092 263.918 -130.227 263.918H-102.375C-101.683 263.918 -100.991 264.567 -100.991 265.377V305.422C-100.991 306.233 -100.299 306.881 -99.4336 306.881H-65.0071C-64.1421 306.881 -63.4501 306.233 -63.4501 305.422V265.377C-63.4501 264.567 -62.7581 263.918 -61.8932 263.918H-34.2136ZM6.42459 263.918C7.11658 263.918 7.80859 264.567 7.80859 265.377V375.785C7.80859 376.433 7.11658 377.082 6.42459 377.082H-21.428C-22.293 377.082 -22.812 376.433 -22.812 375.785V265.377C-22.812 264.567 -22.293 263.918 -21.428 263.918H6.42459ZM88.297 351.142C89.162 351.142 90.027 351.952 89.8539 352.763L87.432 375.947C87.259 376.757 86.74 377.244 85.875 377.244H20.136C19.271 377.244 18.579 376.595 18.579 375.623V265.377C18.579 264.729 19.098 264.08 19.963 264.08H85.875C86.74 264.08 87.259 264.567 87.432 265.377L89.8539 288.399C89.8539 289.372 89.162 290.02 88.297 290.02H50.7566C49.8916 290.02 49.1996 290.669 49.1996 291.48V305.26C49.1996 306.071 49.8916 306.719 50.7566 306.719H78.0901C78.9551 306.719 79.6471 307.368 79.6471 308.178V331.2C79.6471 332.011 78.9551 332.659 78.0901 332.659H50.7566C49.8916 332.659 49.1996 333.308 49.1996 334.119V349.683C49.1996 350.493 49.8916 351.142 50.7566 351.142H88.297ZM164.751 265.215L167 288.399C167 289.21 166.308 290.02 165.443 290.02H130.498C129.633 290.02 128.941 290.669 128.941 291.48V305.422C128.941 306.233 129.633 306.881 130.498 306.881H156.274C157.139 306.881 157.831 307.53 157.658 308.341L157.485 331.525C157.485 332.335 156.793 332.822 156.101 332.822H130.498C129.633 332.822 128.941 333.47 128.941 334.281V375.785C128.941 376.433 128.249 377.082 127.557 377.082H99.704C98.839 377.082 98.3201 376.433 98.3201 375.785V265.377C98.3201 264.567 98.839 263.918 99.704 263.918H163.194C164.059 263.918 164.751 264.567 164.751 265.215Z" stroke="black" stroke-width="2" mask="url(#path-1-outside-1_476_94)"/>
<path d="M1423.24 3.91826C1423.93 3.91826 1424.62 4.56676 1424.62 5.37739V115.785C1424.62 116.433 1423.93 117.082 1423.24 117.082H1395.38C1394.52 117.082 1394 116.433 1394 115.785V5.37739C1394 4.56676 1394.52 3.91826 1395.38 3.91826H1423.24ZM1509.26 3.594C1510.13 3.594 1510.82 4.2425 1510.82 5.05313V28.3992C1510.82 29.0477 1510.13 29.6962 1509.26 29.6962H1487.81C1486.94 29.6962 1486.25 30.3447 1486.25 31.1553V115.623C1486.25 116.271 1485.73 116.92 1484.87 116.92H1457.02C1456.15 116.92 1455.63 116.271 1455.63 115.623V31.1553C1455.63 30.3447 1454.94 29.6962 1454.07 29.6962H1432.45C1431.59 29.6962 1431.07 29.0477 1431.07 28.3992V5.05313C1431.07 4.2425 1431.59 3.594 1432.45 3.594H1509.26ZM1586.71 91.1417C1587.57 91.1417 1588.44 91.9523 1588.27 92.7629L1585.84 115.947C1585.67 116.757 1585.15 117.244 1584.29 117.244H1518.55C1517.68 117.244 1516.99 116.595 1516.99 115.623V5.37739C1516.99 4.72888 1517.51 4.08038 1518.37 4.08038H1584.29C1585.15 4.08038 1585.67 4.56676 1585.84 5.37739L1588.27 28.3992C1588.27 29.3719 1587.57 30.0204 1586.71 30.0204H1549.17C1548.3 30.0204 1547.61 30.6689 1547.61 31.4796V45.2602C1547.61 46.0708 1548.3 46.7193 1549.17 46.7193H1576.5C1577.37 46.7193 1578.06 47.3678 1578.06 48.1785V71.2003C1578.06 72.0109 1577.37 72.6594 1576.5 72.6594H1549.17C1548.3 72.6594 1547.61 73.3079 1547.61 74.1185V89.6826C1547.61 90.4932 1548.3 91.1417 1549.17 91.1417H1586.71ZM1700.52 95.0327C1701.21 95.5191 1701.39 96.4918 1700.87 96.9782C1689.11 111.569 1670.94 120 1651.74 120C1617.48 120 1589.8 93.4114 1589.8 60.5C1589.8 27.7507 1617.48 1 1651.74 1C1661.77 1 1671.46 3.26975 1680.28 7.64714C1687.89 11.5381 1694.81 16.8883 1700.18 23.2112C1700.7 23.8597 1700.52 24.6703 1699.83 25.1567L1679.24 39.2616C1678.73 39.748 1677.86 39.5858 1677.34 39.0994C1670.77 31.9659 1661.6 28.0749 1651.74 28.0749C1633.05 28.0749 1617.83 42.6662 1617.83 60.5C1617.83 78.4959 1633.05 93.0872 1651.74 93.0872C1661.94 93.0872 1671.46 88.7098 1678.03 81.252C1678.38 80.6035 1679.42 80.6035 1679.94 80.9278L1700.52 95.0327ZM1804.79 3.91826C1805.65 3.91826 1806.34 4.56676 1806.34 5.37739V115.785C1806.34 116.433 1805.65 117.082 1804.79 117.082H1777.11C1776.24 117.082 1775.55 116.433 1775.55 115.785V74.1185C1775.55 73.3079 1774.86 72.8215 1773.99 72.8215H1739.57C1738.7 72.8215 1738.01 73.3079 1738.01 74.1185V115.785C1738.01 116.433 1737.32 117.082 1736.63 117.082H1708.77C1707.91 117.082 1707.39 116.433 1707.39 115.785V5.37739C1707.39 4.56676 1707.91 3.91826 1708.77 3.91826H1736.63C1737.32 3.91826 1738.01 4.56676 1738.01 5.37739V45.4223C1738.01 46.233 1738.7 46.8815 1739.57 46.8815H1773.99C1774.86 46.8815 1775.55 46.233 1775.55 45.4223V5.37739C1775.55 4.56676 1776.24 3.91826 1777.11 3.91826H1804.79ZM1845.42 3.91826C1846.12 3.91826 1846.81 4.56676 1846.81 5.37739V115.785C1846.81 116.433 1846.12 117.082 1845.42 117.082H1817.57C1816.71 117.082 1816.19 116.433 1816.19 115.785V5.37739C1816.19 4.56676 1816.71 3.91826 1817.57 3.91826H1845.42ZM1927.3 91.1417C1928.16 91.1417 1929.03 91.9523 1928.85 92.7629L1926.43 115.947C1926.26 116.757 1925.74 117.244 1924.88 117.244H1859.14C1858.27 117.244 1857.58 116.595 1857.58 115.623V5.37739C1857.58 4.72888 1858.1 4.08038 1858.96 4.08038H1924.88C1925.74 4.08038 1926.26 4.56676 1926.43 5.37739L1928.85 28.3992C1928.85 29.3719 1928.16 30.0204 1927.3 30.0204H1889.76C1888.89 30.0204 1888.2 30.6689 1888.2 31.4796V45.2602C1888.2 46.0708 1888.89 46.7193 1889.76 46.7193H1917.09C1917.96 46.7193 1918.65 47.3678 1918.65 48.1785V71.2003C1918.65 72.0109 1917.96 72.6594 1917.09 72.6594H1889.76C1888.89 72.6594 1888.2 73.3079 1888.2 74.1185V89.6826C1888.2 90.4932 1888.89 91.1417 1889.76 91.1417H1927.3ZM2003.75 5.21525L2006 28.3992C2006 29.2098 2005.31 30.0204 2004.44 30.0204H1969.5C1968.63 30.0204 1967.94 30.6689 1967.94 31.4796V45.4223C1967.94 46.233 1968.63 46.8815 1969.5 46.8815H1995.27C1996.14 46.8815 1996.83 47.53 1996.66 48.3406L1996.49 71.5245C1996.49 72.3352 1995.79 72.8215 1995.1 72.8215H1969.5C1968.63 72.8215 1967.94 73.47 1967.94 74.2807V115.785C1967.94 116.433 1967.25 117.082 1966.56 117.082H1938.7C1937.84 117.082 1937.32 116.433 1937.32 115.785V5.37739C1937.32 4.56676 1937.84 3.91826 1938.7 3.91826H2002.19C2003.06 3.91826 2003.75 4.56676 2003.75 5.21525Z" stroke="black" stroke-width="2" mask="url(#path-1-outside-1_476_94)"/>
</g>
</svg>
